<svg xmlns="http://www.w3.org/2000/svg" viewBox="0 0 880 240" width="880" height="240"><defs><clipPath id="30-topics-ai-features-card"><rect width="880" height="240" rx="18"/></clipPath><radialGradient id="30-topics-ai-features-jelly"><stop offset="0" stop-color="#9b7cf0" stop-opacity="0.55"/><stop offset=".5" stop-color="#9b7cf0" stop-opacity="0.18"/><stop offset="1" stop-color="#9b7cf0" stop-opacity="0"/></radialGradient><radialGradient id="30-topics-ai-features-node"><stop offset="0" stop-color="#ffffff" stop-opacity="0.7"/><stop offset=".5" stop-color="#ffffff" stop-opacity="0.24"/><stop offset="1" stop-color="#ffffff" stop-opacity="0"/></radialGradient><linearGradient id="30-topics-ai-features-bell" x1="0" y1="0" x2="0" y2="1"><stop offset="0" stop-color="#ddd1ff"/><stop offset="0.55" stop-color="#cbb8ff"/><stop offset="1" stop-color="#b197f7"/></linearGradient><linearGradient id="30-topics-ai-features-bg" x1="0" y1="0" x2="0" y2="1"><stop offset="0" stop-color="#16336f"/><stop offset="0.25" stop-color="#112a5e"/><stop offset="0.5" stop-color="#0d214d"/><stop offset="0.75" stop-color="#0a1a3e"/><stop offset="1" stop-color="#08142e"/></linearGradient><radialGradient id="30-topics-ai-features-glow"><stop offset="0" stop-color="#9cc0ff" stop-opacity="0.28"/><stop offset=".5" stop-color="#9cc0ff" stop-opacity="0.1"/><stop offset="1" stop-color="#9cc0ff" stop-opacity="0"/></radialGradient><linearGradient id="30-topics-ai-features-rays-ray" x1="0" y1="0" x2="0" y2="1"><stop offset="0" stop-color="#9cc0ff" stop-opacity="0.22"/><stop offset=".55" stop-color="#9cc0ff" stop-opacity="0.08"/><stop offset="1" stop-color="#9cc0ff" stop-opacity="0"/></linearGradient></defs><g clip-path="url(#30-topics-ai-features-card)"><rect width="880" height="240" fill="url(#30-topics-ai-features-bg)"/><ellipse cx="560" cy="-30" rx="360" ry="198" fill="url(#30-topics-ai-features-glow)"/><path d="M-0.5,9 L27.5,9 L-32.3,185.4 L-114.3,185.4 Z" fill="url(#30-topics-ai-features-rays-ray)" fill-opacity="0.19"/><path d="M4.9,9 L22.2,9 L-47.9,185.4 L-98.8,185.4 Z" fill="url(#30-topics-ai-features-rays-ray)" fill-opacity="0.19"/><path d="M9.3,9 L17.7,9 L-61,185.4 L-85.6,185.4 Z" fill="url(#30-topics-ai-features-rays-ray)" fill-opacity="0.19"/><path d="M195.2,9 L223.6,9 L178.7,215.9 L111.7,215.9 Z" fill="url(#30-topics-ai-features-rays-ray)" fill-opacity="0.23"/><path d="M200.6,9 L218.2,9 L166,215.9 L124.4,215.9 Z" fill="url(#30-topics-ai-features-rays-ray)" fill-opacity="0.23"/><path d="M205.1,9 L213.6,9 L155.2,215.9 L135.1,215.9 Z" fill="url(#30-topics-ai-features-rays-ray)" fill-opacity="0.23"/><path d="M351.8,9 L378,9 L367.4,210.6 L295.6,210.6 Z" fill="url(#30-topics-ai-features-rays-ray)" fill-opacity="0.3"/><path d="M356.8,9 L373,9 L353.8,210.6 L309.2,210.6 Z" fill="url(#30-topics-ai-features-rays-ray)" fill-opacity="0.3"/><path d="M360.9,9 L368.8,9 L342.3,210.6 L320.7,210.6 Z" fill="url(#30-topics-ai-features-rays-ray)" fill-opacity="0.3"/><path d="M490.6,9 L529.7,9 L560.8,224.3 L446.3,224.3 Z" fill="url(#30-topics-ai-features-rays-ray)" fill-opacity="0.28"/><path d="M498,9 L522.3,9 L539.1,224.3 L468.1,224.3 Z" fill="url(#30-topics-ai-features-rays-ray)" fill-opacity="0.28"/><path d="M504.3,9 L516,9 L520.7,224.3 L486.4,224.3 Z" fill="url(#30-topics-ai-features-rays-ray)" fill-opacity="0.28"/><path d="M680.9,9 L715.4,9 L780.2,216.8 L676,216.8 Z" fill="url(#30-topics-ai-features-rays-ray)" fill-opacity="0.25"/><path d="M687.5,9 L708.8,9 L760.4,216.8 L695.8,216.8 Z" fill="url(#30-topics-ai-features-rays-ray)" fill-opacity="0.25"/><path d="M693,9 L703.3,9 L743.8,216.8 L712.5,216.8 Z" fill="url(#30-topics-ai-features-rays-ray)" fill-opacity="0.25"/><path d="M829,9 L860.9,9 L936.6,181.6 L850.2,181.6 Z" fill="url(#30-topics-ai-features-rays-ray)" fill-opacity="0.29"/><path d="M835.1,9 L854.9,9 L920.2,181.6 L866.7,181.6 Z" fill="url(#30-topics-ai-features-rays-ray)" fill-opacity="0.29"/><path d="M840.2,9 L849.8,9 L906.4,181.6 L880.5,181.6 Z" fill="url(#30-topics-ai-features-rays-ray)" fill-opacity="0.29"/><g fill="none" stroke="#1d3468" stroke-width="1.6" stroke-linecap="round"><path d="M122.5,176.9 Q119.7,168.7 111.3,169.9"/><path d="M115.6,172.5 l-1.6,-2.6" stroke-width="1.3"/><path d="M122.5,176.9 Q120.4,168.5 114,166.3"/><path d="M122.5,176.9 Q121.3,168.2 117.8,163.7"/><path d="M119.6,168.7 l-1.6,-2.6" stroke-width="1.3"/><path d="M122.5,176.9 Q122.5,166.1 122.5,159.5"/><path d="M122.5,176.9 Q123.8,166.7 127.9,161.4"/><path d="M125.8,167.3 l1.6,-2.6" stroke-width="1.3"/><path d="M122.5,176.9 Q124.5,168.8 130.5,166.8"/><path d="M122.5,176.9 Q124.9,169.8 132.1,170.9"/><path d="M128.4,173.1 l1.6,-2.6" stroke-width="1.3"/></g><g fill="none" stroke="#1d3468" stroke-width="2.2" stroke-linecap="round" stroke-linejoin="round"><path d="M350.8,184.9 C350.8,183.7 350.7,179.9 350.8,177.7 C350.8,175.5 351.2,172.7 351.2,171.7"/><path d="M350.8,180.1 C350.2,179.5 347.8,178.1 347.2,176.5 C346.5,174.9 346.7,172.3 346.7,170.5 C346.7,168.7 347.1,166.5 347.2,165.7"/><path d="M350.8,178.9 C351.4,178.3 354,177.1 354.8,175.5 C355.7,173.9 355.8,170.5 356,169.5"/><path d="M351.2,171.7 C351.3,170.5 351.7,166.4 351.7,164.5 C351.7,162.6 351.3,161 351.2,160.3"/><path d="M351.7,165.7 C352.2,165.1 353.8,163.6 354.4,162.5 C354.9,161.5 354.8,159.7 354.8,159.2"/><path d="M346.9,170.5 C346.4,169.9 344.4,168.5 343.8,167.3 C343.2,166.1 343.2,163.9 343.1,163.3"/><path d="M356,169.5 C356.5,169.1 358.2,167.8 358.7,166.9 C359.2,165.9 359.1,164.3 359.2,163.7"/><path d="M347,166.9 C347.4,166.3 348.7,164.5 349.1,163.5 C349.4,162.5 349.1,161.3 349.1,160.9"/><path d="M351.2,164.5 C350.8,163.9 349.2,161.9 348.8,161.3"/></g><g fill="none" stroke="#1d3468" stroke-width="1.6" stroke-linecap="round"><path d="M703.1,180.4 Q699.5,169.8 688.6,171.3"/><path d="M694.1,174.8 l-2.1,-3.4" stroke-width="1.3"/><path d="M703.1,180.4 Q700.4,169.5 692.2,166.7"/><path d="M703.1,180.4 Q701.6,169.2 697.1,163.3"/><path d="M699.4,169.8 l-2.1,-3.4" stroke-width="1.3"/><path d="M703.1,180.4 Q703.1,166.4 703.1,157.9"/><path d="M703.1,180.4 Q704.9,167.2 710.2,160.3"/><path d="M707.5,167.9 l2.1,-3.4" stroke-width="1.3"/><path d="M703.1,180.4 Q705.7,170 713.6,167.3"/><path d="M703.1,180.4 Q706.2,171.3 715.6,172.6"/><path d="M710.9,175.5 l2.1,-3.4" stroke-width="1.3"/></g><path d="M-46.6,179.6 C-38.9,179.1 -15.5,177.3 0,176.2 C15.5,175.1 31.1,173.6 46.6,172.9 C62.2,172.1 77.7,171.7 93.3,171.9 C108.8,172 124.4,173 139.9,174 C155.4,174.9 171,176.6 186.5,177.8 C202.1,179 217.6,180.3 233.2,181 C248.7,181.7 264.2,182 279.8,182.1 C295.3,182.2 310.9,181.7 326.4,181.4 C342,181.1 357.5,180.7 373.1,180.4 C388.6,180.1 404.1,180 419.7,179.8 C435.2,179.5 450.8,179.4 466.3,179 C481.9,178.6 497.4,178 513,177.3 C528.5,176.5 544,175.4 559.6,174.6 C575.1,173.8 590.7,172.8 606.2,172.5 C621.8,172.2 637.3,172.3 652.8,172.9 C668.4,173.5 683.9,174.8 699.5,176.1 C715,177.3 730.6,179.1 746.1,180.3 C761.7,181.5 777.2,182.6 792.7,183.1 C808.3,183.6 823.8,183.5 839.4,183.1 C854.9,182.8 870.5,181.8 886,181.1 C901.5,180.3 924.9,179.1 932.6,178.8 L920,250 L-40,250 Z" fill="#16295a"/><g fill="none" stroke="#243e80" stroke-width="2.6" stroke-linecap="round" stroke-linejoin="round"><path d="M109,202.4 C109,200.9 108.9,196.2 109,193.4 C109.1,190.7 109.5,187.2 109.6,185.9"/><path d="M109,196.4 C108.2,195.7 105.3,193.9 104.5,191.9 C103.6,189.9 103.9,186.7 103.9,184.4 C103.9,182.2 104.4,179.4 104.5,178.4"/><path d="M109,194.9 C109.8,194.2 113,192.7 114.1,190.7 C115.2,188.8 115.3,184.5 115.6,183.2"/><path d="M109.6,185.9 C109.7,184.4 110.2,179.3 110.2,176.9 C110.2,174.5 109.7,172.5 109.6,171.7"/><path d="M110.2,178.4 C110.7,177.8 112.8,175.9 113.5,174.5 C114.1,173.2 114,171 114.1,170.3"/><path d="M104.2,184.4 C103.5,183.8 101.1,182 100.3,180.5 C99.5,179 99.5,176.3 99.4,175.4"/><path d="M115.6,183.2 C116.1,182.7 118.2,181.1 118.9,179.9 C119.5,178.7 119.4,176.7 119.5,176"/><path d="M104.3,179.9 C104.7,179.2 106.4,177 106.9,175.7 C107.3,174.5 106.9,173 106.9,172.4"/><path d="M109.6,176.9 C109.1,176.3 107.1,173.7 106.6,173"/></g><g fill="#243e80"><path d="M364.9,196.1 C365,195.6 365,194.2 365,193.3 C365,192.3 365,191.4 365,190.4 C365,189.5 365,188.5 365.1,187.6 C365.1,186.7 365.1,185.7 365.1,184.8 C365.2,183.8 365.2,182.9 365.2,182 C365.3,181 365.3,180.1 365.4,179.1 C365.4,178.2 365.5,177.2 365.5,176.3 C365.6,175.4 365.6,174.4 365.7,173.5 C365.7,172.5 365.8,171.6 365.9,170.6 C365.9,169.7 366.1,168.3 366.1,167.8" fill="none" stroke="#243e80" stroke-width="1.5" stroke-linecap="round"/><path d="M365,192 Q359.8,192.5 355.5,186.9 Q361.7,186.9 365,192 Z"/><path d="M365,192 Q370.2,192.5 374.4,186.9 Q368.3,186.9 365,192 Z"/><path d="M365,188 Q360.3,188.4 356.4,183.2 Q362,183.2 365,188 Z"/><path d="M365,188 Q369.8,188.4 373.7,183.2 Q368.1,183.2 365,188 Z"/><path d="M365.2,184 Q360.8,184.4 357.3,179.6 Q362.4,179.6 365.2,184 Z"/><path d="M365.2,184 Q369.5,184.4 373,179.6 Q367.9,179.6 365.2,184 Z"/><path d="M365.3,179.9 Q361.4,180.3 358.2,176 Q362.8,176 365.3,179.9 Z"/><path d="M365.3,179.9 Q369.2,180.3 372.4,176 Q367.8,176 365.3,179.9 Z"/><path d="M365.5,175.9 Q362,176.2 359.2,172.4 Q363.3,172.4 365.5,175.9 Z"/><path d="M365.5,175.9 Q369,176.2 371.9,172.4 Q367.8,172.4 365.5,175.9 Z"/><path d="M365.8,171.9 Q362.7,172.1 360.2,168.8 Q363.8,168.8 365.8,171.9 Z"/><path d="M365.8,171.9 Q368.9,172.1 371.4,168.8 Q367.7,168.8 365.8,171.9 Z"/><ellipse cx="366.1" cy="165.4" rx="2.7" ry="3.9"/></g><path d="M-40.9,197.3 C-34.1,197.6 -13.6,199 0,199.4 C13.6,199.8 27.3,199.7 40.9,199.6 C54.5,199.5 68.1,199.1 81.8,198.9 C95.4,198.6 109,198.4 122.6,198.3 C136.3,198.1 149.9,198.1 163.5,197.8 C177.2,197.5 190.8,197.1 204.4,196.5 C218,195.8 231.7,194.8 245.3,193.9 C258.9,193 272.6,191.8 286.2,191.2 C299.8,190.6 313.4,190.1 327.1,190.3 C340.7,190.5 354.3,191.3 367.9,192.3 C381.6,193.4 395.2,195.1 408.8,196.4 C422.5,197.7 436.1,199.3 449.7,200.2 C463.3,201 477,201.4 490.6,201.4 C504.2,201.4 517.9,200.7 531.5,200.1 C545.1,199.4 558.7,198.3 572.4,197.6 C586,196.9 599.6,196.2 613.2,195.7 C626.9,195.3 640.5,195.1 654.1,194.8 C667.8,194.5 681.4,194.4 695,194 C708.6,193.7 722.3,193.2 735.9,192.8 C749.5,192.4 763.1,191.8 776.8,191.7 C790.4,191.7 804,191.8 817.7,192.3 C831.3,192.9 844.9,194.1 858.5,195.2 C872.2,196.4 885.8,198.1 899.4,199.2 C913.1,200.4 933.5,201.5 940.3,201.9 L920,250 L-40,250 Z" fill="#1b3270"/><g fill="#22397a"><circle cx="816.6" cy="209.2" r="1.7"/><circle cx="423.7" cy="214.7" r="0.9"/><circle cx="31.6" cy="216.3" r="1.6"/><circle cx="187.3" cy="206.1" r="1.5"/><circle cx="235.6" cy="202.6" r="1.3"/><circle cx="161" cy="203.9" r="1.6"/><circle cx="347.5" cy="208.3" r="1.4"/><circle cx="776.2" cy="199.1" r="1.1"/><circle cx="583.3" cy="208.3" r="0.9"/><circle cx="377.1" cy="208.1" r="2"/><circle cx="489.5" cy="210.2" r="1.5"/><circle cx="263.5" cy="209.8" r="1.5"/><circle cx="435.4" cy="206.2" r="1"/><circle cx="128.2" cy="209.5" r="1.4"/><circle cx="506" cy="217.3" r="1.8"/><circle cx="505.9" cy="214.1" r="1.3"/><circle cx="297.2" cy="209.5" r="1.7"/><circle cx="201.2" cy="209.1" r="1.6"/><circle cx="660.1" cy="205.2" r="1.9"/><circle cx="325.6" cy="197.8" r="1.9"/><circle cx="282.1" cy="196.6" r="1.3"/><circle cx="356.3" cy="201" r="1.2"/><circle cx="268.4" cy="197.5" r="1.8"/><circle cx="699" cy="202.3" r="1.5"/></g><path d="M-32.2,213.7 C-26.8,213.5 -10.7,212.8 0,212.3 C10.7,211.8 21.4,211.1 32.2,210.8 C42.9,210.5 53.6,210.2 64.3,210.3 C75,210.5 85.8,211 96.5,211.7 C107.2,212.3 117.9,213.5 128.6,214.3 C139.4,215.1 150.1,216.2 160.8,216.7 C171.5,217.2 182.2,217.5 193,217.5 C203.7,217.6 214.4,217.1 225.1,216.8 C235.8,216.4 246.6,215.8 257.3,215.4 C268,215 278.7,214.6 289.4,214.3 C300.1,214.1 310.9,214 321.6,213.8 C332.3,213.7 343,213.5 353.7,213.2 C364.5,212.9 375.2,212.5 385.9,212.1 C396.6,211.7 407.3,211.1 418.1,210.8 C428.8,210.6 439.5,210.4 450.2,210.7 C460.9,210.9 471.7,211.5 482.4,212.2 C493.1,212.9 503.8,214 514.5,214.9 C525.3,215.7 536,216.7 546.7,217.1 C557.4,217.6 568.1,217.8 578.9,217.8 C589.6,217.7 600.3,217.1 611,216.7 C621.7,216.2 632.5,215.5 643.2,215 C653.9,214.5 664.6,214.1 675.3,213.8 C686.1,213.5 696.8,213.5 707.5,213.3 C718.2,213.1 728.9,213 739.7,212.8 C750.4,212.6 761.1,212.2 771.8,211.9 C782.5,211.6 793.2,211.1 804,211 C814.7,210.8 825.4,210.8 836.1,211.1 C846.8,211.4 857.6,212 868.3,212.7 C879,213.5 889.7,214.6 900.4,215.4 C911.2,216.2 927.2,217.2 932.6,217.5 L920,250 L-40,250 Z" fill="#223c85"/><g fill="#2c4895"><circle cx="855.8" cy="217.9" r="1.6"/><circle cx="587.2" cy="230.9" r="2.1"/><circle cx="342.8" cy="235.3" r="2.2"/><circle cx="298.2" cy="238.3" r="1.3"/><circle cx="58.8" cy="228.7" r="1.5"/><circle cx="414" cy="222.6" r="2.1"/><circle cx="238.1" cy="239.2" r="2.1"/><circle cx="337.6" cy="227.5" r="1.7"/><circle cx="21.7" cy="217.8" r="1.4"/><circle cx="346.4" cy="235.2" r="1.5"/><circle cx="655" cy="232.4" r="1.6"/><circle cx="726.1" cy="224.2" r="1.6"/><circle cx="397" cy="235.2" r="1.6"/><circle cx="826.9" cy="233.6" r="2"/><circle cx="253.5" cy="235.6" r="1.2"/><circle cx="343.7" cy="235.3" r="1.2"/><circle cx="328.1" cy="223.8" r="1.6"/><circle cx="147.4" cy="232.1" r="1.3"/><circle cx="794.2" cy="233.7" r="1.8"/><circle cx="6" cy="225.6" r="1.3"/><circle cx="521.3" cy="226.1" r="2"/><circle cx="820" cy="218.4" r="1.1"/><circle cx="599.3" cy="231.4" r="1.3"/><circle cx="750.3" cy="233.7" r="1.8"/><circle cx="417.2" cy="221.9" r="1.7"/><circle cx="264.1" cy="232.8" r="1.2"/><circle cx="208.9" cy="238.5" r="2.1"/><circle cx="724.2" cy="223.3" r="1.3"/></g><ellipse cx="566" cy="80" rx="150" ry="104" fill="url(#30-topics-ai-features-jelly)"/><ellipse cx="574" cy="224" rx="120" ry="6" fill="#02081a" fill-opacity="0.12"/><ellipse cx="574" cy="224" rx="86.4" ry="4.3" fill="#02081a" fill-opacity="0.19"/><ellipse cx="574" cy="224" rx="54" ry="2.7" fill="#02081a" fill-opacity="0.28"/><ellipse cx="316" cy="224" rx="38" ry="4.9" fill="#02081a" fill-opacity="0.12"/><ellipse cx="316" cy="224" rx="27.4" ry="3.6" fill="#02081a" fill-opacity="0.19"/><ellipse cx="316" cy="224" rx="17.1" ry="2.2" fill="#02081a" fill-opacity="0.28"/><g transform="translate(488,202) rotate(-8)"><rect x="-17" y="-20" width="34" height="40" rx="3" fill="#f3f7ff" stroke="#3a4a96" stroke-width="1.6" stroke-linejoin="round" stroke-linecap="round"/><rect x="-13" y="-16" width="26" height="5" rx="2" fill="#2152c4"/><path d="M-12,-6 L12,-6 M-12,-0.5 L6,-0.5 M-12,5 L12,5" fill="none" stroke="#7f9fdc" stroke-width="1.8" stroke-linecap="round" stroke-linejoin="round"/></g><g transform="translate(532,206) rotate(5)"><rect x="-17" y="-20" width="34" height="40" rx="3" fill="#f3f7ff" stroke="#3a4a96" stroke-width="1.6" stroke-linejoin="round" stroke-linecap="round"/><rect x="-13" y="-16" width="26" height="5" rx="2" fill="#15784b"/><path d="M-12,-6 L12,-6 M-12,-0.5 L6,-0.5 M-12,5 L12,5" fill="none" stroke="#7f9fdc" stroke-width="1.8" stroke-linecap="round" stroke-linejoin="round"/></g><g transform="translate(578,200) rotate(-3)"><rect x="-17" y="-20" width="34" height="40" rx="3" fill="#f3f7ff" stroke="#3a4a96" stroke-width="1.6" stroke-linejoin="round" stroke-linecap="round"/><rect x="-13" y="-16" width="26" height="5" rx="2" fill="#6a45cf"/><path d="M-12,-6 L12,-6 M-12,-0.5 L6,-0.5 M-12,5 L12,5" fill="none" stroke="#7f9fdc" stroke-width="1.8" stroke-linecap="round" stroke-linejoin="round"/></g><path d="M608,218 L612,200 Q627,195 642,202 Q657,195 672,200 L676,218 Q659,213 642,220 Q625,213 608,218 Z" fill="#2152c4" stroke="#3a4a96" stroke-width="1.6" stroke-linejoin="round" stroke-linecap="round"/><path d="M613,214 L616,199 Q629,195 642,203 L642,216 Q628,210 613,214 Z M671,214 L668,199 Q655,195 642,203 L642,216 Q656,210 671,214 Z" fill="#f3f7ff" stroke="#3a4a96" stroke-width="1.28" stroke-linejoin="round" stroke-linecap="round"/><path d="M620,205 L635,207 M619,210 L635,212 M649,207 L664,205 M649,212 L663,210" fill="none" stroke="#7f9fdc" stroke-width="1.6" stroke-linecap="round" stroke-linejoin="round"/><path d="M516,106 C514.9,107.5 510.9,111.8 509.2,115 C507.4,118.3 506.5,122 505.6,125.7 C504.8,129.4 505.3,133.7 504,137.3 C502.8,140.8 500.8,143.9 498.2,146.8 C495.7,149.7 491.2,151.6 488.9,154.6 C486.5,157.6 484.6,160.8 483.9,164.6 C483.2,168.3 484.5,175.2 484.6,177.3" fill="none" stroke="#9b7cf0" stroke-width="3.2" stroke-linecap="round" stroke-linejoin="round" stroke-opacity="0.35"/><path d="M516,106 C514.9,107.5 510.9,111.8 509.2,115 C507.4,118.3 506.5,122 505.6,125.7 C504.8,129.4 505.3,133.7 504,137.3 C502.8,140.8 500.8,143.9 498.2,146.8 C495.7,149.7 491.2,151.6 488.9,154.6 C486.5,157.6 484.6,160.8 483.9,164.6 C483.2,168.3 484.5,175.2 484.6,177.3" fill="none" stroke="#d5c6ff" stroke-width="1.8" stroke-linecap="round" stroke-linejoin="round" stroke-opacity="0.95"/><circle cx="482" cy="176" r="7" fill="url(#30-topics-ai-features-node)"/><circle cx="482" cy="176" r="2.8" fill="#ffffff" stroke="#3a4a96" stroke-width="0.8" stroke-linejoin="round" stroke-linecap="round"/><path d="M540.3,105.7 C540.2,107.5 539.3,112.8 539.4,116.4 C539.5,120.1 540.9,123.9 540.8,127.5 C540.7,131.1 540.2,134.6 538.8,138 C537.4,141.4 534.1,144.5 532.7,147.9 C531.2,151.3 530,154.7 530.2,158.3 C530.4,162 533.1,166 533.8,169.8 C534.6,173.5 534.5,178.9 534.6,180.7" fill="none" stroke="#9b7cf0" stroke-width="3.2" stroke-linecap="round" stroke-linejoin="round" stroke-opacity="0.35"/><path d="M540.3,105.7 C540.2,107.5 539.3,112.8 539.4,116.4 C539.5,120.1 540.9,123.9 540.8,127.5 C540.7,131.1 540.2,134.6 538.8,138 C537.4,141.4 534.1,144.5 532.7,147.9 C531.2,151.3 530,154.7 530.2,158.3 C530.4,162 533.1,166 533.8,169.8 C534.6,173.5 534.5,178.9 534.6,180.7" fill="none" stroke="#d5c6ff" stroke-width="1.8" stroke-linecap="round" stroke-linejoin="round" stroke-opacity="0.95"/><circle cx="530" cy="180" r="7" fill="url(#30-topics-ai-features-node)"/><circle cx="530" cy="180" r="2.8" fill="#ffffff" stroke="#3a4a96" stroke-width="0.8" stroke-linejoin="round" stroke-linecap="round"/><path d="M567.1,106.2 C567.8,107.7 570.4,112.3 571.4,115.4 C572.5,118.6 573.4,121.7 573.3,125.1 C573.3,128.4 571.6,132.1 571.3,135.5 C571.1,138.8 570.6,142.3 571.7,145.4 C572.8,148.6 576.1,151.3 578,154.3 C579.8,157.3 582.4,160.2 582.6,163.5 C582.9,166.8 580.1,172.3 579.6,174.1" fill="none" stroke="#9b7cf0" stroke-width="3.2" stroke-linecap="round" stroke-linejoin="round" stroke-opacity="0.35"/><path d="M567.1,106.2 C567.8,107.7 570.4,112.3 571.4,115.4 C572.5,118.6 573.4,121.7 573.3,125.1 C573.3,128.4 571.6,132.1 571.3,135.5 C571.1,138.8 570.6,142.3 571.7,145.4 C572.8,148.6 576.1,151.3 578,154.3 C579.8,157.3 582.4,160.2 582.6,163.5 C582.9,166.8 580.1,172.3 579.6,174.1" fill="none" stroke="#d5c6ff" stroke-width="1.8" stroke-linecap="round" stroke-linejoin="round" stroke-opacity="0.95"/><circle cx="580" cy="174" r="7" fill="url(#30-topics-ai-features-node)"/><circle cx="580" cy="174" r="2.8" fill="#ffffff" stroke="#3a4a96" stroke-width="0.8" stroke-linejoin="round" stroke-linecap="round"/><path d="M593.1,105.6 C594,107.6 597.3,113.4 598.5,117.6 C599.8,121.9 599.7,126.6 600.5,131 C601.4,135.4 601.9,140 603.8,143.9 C605.8,147.9 609.5,151.2 612.2,154.9 C614.9,158.5 618.5,161.8 620.1,165.9 C621.6,170.1 621.1,175 621.4,179.6 C621.6,184.3 621.4,191.4 621.4,193.8" fill="none" stroke="#9b7cf0" stroke-width="3.2" stroke-linecap="round" stroke-linejoin="round" stroke-opacity="0.35"/><path d="M593.1,105.6 C594,107.6 597.3,113.4 598.5,117.6 C599.8,121.9 599.7,126.6 600.5,131 C601.4,135.4 601.9,140 603.8,143.9 C605.8,147.9 609.5,151.2 612.2,154.9 C614.9,158.5 618.5,161.8 620.1,165.9 C621.6,170.1 621.1,175 621.4,179.6 C621.6,184.3 621.4,191.4 621.4,193.8" fill="none" stroke="#d5c6ff" stroke-width="1.8" stroke-linecap="round" stroke-linejoin="round" stroke-opacity="0.95"/><circle cx="626" cy="192" r="7" fill="url(#30-topics-ai-features-node)"/><circle cx="626" cy="192" r="2.8" fill="#ffffff" stroke="#3a4a96" stroke-width="0.8" stroke-linejoin="round" stroke-linecap="round"/><path d="M617.4,105.3 C618,107.6 619.7,114.2 621,118.6 C622.3,123 623,127.7 625.1,131.7 C627.1,135.7 630.5,139.1 633.4,142.7 C636.2,146.4 640.1,149.6 642.1,153.6 C644.1,157.7 644.5,162.5 645.3,167.1 C646,171.8 644.9,177.2 646.4,181.5 C647.8,185.8 652.7,191 654,192.9" fill="none" stroke="#9b7cf0" stroke-width="3.2" stroke-linecap="round" stroke-linejoin="round" stroke-opacity="0.35"/><path d="M617.4,105.3 C618,107.6 619.7,114.2 621,118.6 C622.3,123 623,127.7 625.1,131.7 C627.1,135.7 630.5,139.1 633.4,142.7 C636.2,146.4 640.1,149.6 642.1,153.6 C644.1,157.7 644.5,162.5 645.3,167.1 C646,171.8 644.9,177.2 646.4,181.5 C647.8,185.8 652.7,191 654,192.9" fill="none" stroke="#d5c6ff" stroke-width="1.8" stroke-linecap="round" stroke-linejoin="round" stroke-opacity="0.95"/><circle cx="656" cy="192" r="7" fill="url(#30-topics-ai-features-node)"/><circle cx="656" cy="192" r="2.8" fill="#ffffff" stroke="#3a4a96" stroke-width="0.8" stroke-linejoin="round" stroke-linecap="round"/><path d="M552.2,102.1 C552.3,103.4 551.8,107.2 552.4,109.6 C553,112 554.6,114.4 555.8,116.8 C556.9,119.2 558.9,121.6 559.4,124 C559.9,126.5 559.6,129 558.8,131.5 C557.9,134.1 555.4,136.8 554.3,139.3 C553.2,141.9 551.7,144.5 552.1,147 C552.4,149.4 555.7,152.9 556.5,154.1" fill="none" stroke="#baa3fa" stroke-width="5" stroke-linecap="round" stroke-linejoin="round" stroke-opacity="0.75"/><path d="M570.1,102.1 C570.5,103.6 571.6,108.1 572.6,111.1 C573.6,114.1 575.5,117.1 576.1,120.1 C576.7,123.1 576.9,126.2 576.4,129.3 C575.8,132.4 573.7,135.5 572.7,138.7 C571.6,141.8 569.9,145 570,148 C570.1,151.1 571.5,154 573.2,157 C574.9,160 578.9,164.3 580.1,165.7" fill="none" stroke="#baa3fa" stroke-width="5" stroke-linecap="round" stroke-linejoin="round" stroke-opacity="0.75"/><path d="M585.7,102 C586.2,103.1 588.2,106.2 588.8,108.4 C589.5,110.5 590.1,112.7 589.7,114.9 C589.4,117.2 587.9,119.5 586.9,121.8 C586,124.1 584.2,126.4 584,128.7 C583.9,130.9 584.8,133 586.1,135.1 C587.5,137.2 590.8,139.1 592.4,141.2 C594,143.2 595.3,146.4 595.9,147.5" fill="none" stroke="#baa3fa" stroke-width="5" stroke-linecap="round" stroke-linejoin="round" stroke-opacity="0.75"/><path d="M494,102 C490,64 526,34 566,34 C606,34 642,64 638,102 Q627.7,111 617.4,102 Q607.1,111 596.9,102 Q586.6,111 576.3,102 Q566,111 555.7,102 Q545.4,111 535.1,102 Q524.9,111 514.6,102 Q504.3,111 494,102 Z" fill="url(#30-topics-ai-features-bell)" fill-opacity=".94"/><path d="M500,100 C514,88 618,88 632,100" fill="none" stroke="#9b7cf0" stroke-opacity=".35" stroke-width="2.4" stroke-linecap="round"/><path d="M522,80 L544,58 M544,58 L566,72 M566,72 L592,56 M592,56 L612,80 M522,80 L546,90 M546,90 L566,72 M566,72 L584,92 M584,92 L612,80 M544,58 L568,46 M568,46 L592,56 M546,90 L584,92" fill="none" stroke="#eae3ff" stroke-width="1.4" stroke-linecap="round" stroke-linejoin="round" stroke-opacity="0.8"/><circle cx="522" cy="80" r="2.4" fill="#eae3ff" stroke="#9b7cf0" stroke-width=".9" stroke-opacity=".6"/><circle cx="544" cy="58" r="2.4" fill="#eae3ff" stroke="#9b7cf0" stroke-width=".9" stroke-opacity=".6"/><circle cx="566" cy="72" r="3.4" fill="#eae3ff" stroke="#9b7cf0" stroke-width=".9" stroke-opacity=".6"/><circle cx="592" cy="56" r="2.4" fill="#eae3ff" stroke="#9b7cf0" stroke-width=".9" stroke-opacity=".6"/><circle cx="612" cy="80" r="2.4" fill="#eae3ff" stroke="#9b7cf0" stroke-width=".9" stroke-opacity=".6"/><circle cx="546" cy="90" r="2.4" fill="#eae3ff" stroke="#9b7cf0" stroke-width=".9" stroke-opacity=".6"/><circle cx="584" cy="92" r="2.4" fill="#eae3ff" stroke="#9b7cf0" stroke-width=".9" stroke-opacity=".6"/><circle cx="568" cy="46" r="2.4" fill="#eae3ff" stroke="#9b7cf0" stroke-width=".9" stroke-opacity=".6"/><path d="M512,80 C510,64 530,44 554,42" fill="none" stroke="#ffffff" stroke-opacity=".6" stroke-width="4" stroke-linecap="round"/><path d="M494,102 C490,64 526,34 566,34 C606,34 642,64 638,102 Q627.7,111 617.4,102 Q607.1,111 596.9,102 Q586.6,111 576.3,102 Q566,111 555.7,102 Q545.4,111 535.1,102 Q524.9,111 514.6,102 Q504.3,111 494,102 Z" fill="none" stroke="#3a4a96" stroke-width="1.6" stroke-linejoin="round" stroke-linecap="round"/><circle cx="641.2" cy="52" r="3.1" fill="#cfe0ff" fill-opacity="0.18" stroke="#9cc0ff" stroke-width="0.6"/><path d="M641.8,50.1 A2,2 0 0 1 643.1,51.3" fill="none" stroke="#ffffff" stroke-width="0.63" stroke-linecap="round"/><circle cx="642.2" cy="33.8" r="2.1" fill="#cfe0ff" fill-opacity="0.18" stroke="#9cc0ff" stroke-width="0.6"/><circle cx="635.7" cy="18" r="1.4" fill="#cfe0ff" fill-opacity="0.18" stroke="#9cc0ff" stroke-width="0.6"/><circle cx="483.6" cy="70" r="2.3" fill="#cfe0ff" fill-opacity="0.18" stroke="#9cc0ff" stroke-width="0.6"/><circle cx="485.4" cy="53.9" r="1.7" fill="#cfe0ff" fill-opacity="0.18" stroke="#9cc0ff" stroke-width="0.6"/><circle cx="478.5" cy="40" r="1.3" fill="#cfe0ff" fill-opacity="0.18" stroke="#9cc0ff" stroke-width="0.6"/><g transform="translate(316,170) scale(0.4387,0.4387) translate(-16.1,18.5)"><defs><linearGradient id="30-topics-ai-features-bot1-glass" x1="0" y1="0" x2="0" y2="1"><stop offset="0" stop-color="#f2f8ff"/><stop offset="1" stop-color="#bcd6f8"/></linearGradient><linearGradient id="30-topics-ai-features-bot1-deep" x1="0" y1="0" x2="0" y2="1"><stop offset=".15" stop-color="#0b1b3d"/><stop offset="1" stop-color="#2152c4"/></linearGradient><radialGradient id="30-topics-ai-features-bot1-glow"><stop offset="0" stop-color="#ffd055" stop-opacity=".8"/><stop offset=".45" stop-color="#ffd055" stop-opacity=".3"/><stop offset="1" stop-color="#ffd055" stop-opacity="0"/></radialGradient><radialGradient id="30-topics-ai-features-bot1-eyeglow"><stop offset="0" stop-color="#9cc0ff" stop-opacity=".7"/><stop offset="1" stop-color="#9cc0ff" stop-opacity="0"/></radialGradient><clipPath id="30-topics-ai-features-bot1-peek"><rect x="-200" y="-300" width="400" height="300"/></clipPath></defs><g transform="translate(-19,64) scale(-1,1) rotate(0)"><rect x="-8" y="-4" width="16" height="28" rx="7" fill="#f3f7ff" stroke="#3a4a96" stroke-width="2.59" stroke-linejoin="round" stroke-linecap="round"/><path d="M2,-2 C6,-1 8,1 8,4 L8,20 C8,22 6,23 4,23 Z" fill="#c9d7f1"/><g transform="translate(0,0)"><path d="M-7,22 C2,19 18,20 34,27 C40,30 39,36 33,37 C18,39 2,38 -8,36 C-12,33 -12,25 -7,22 Z" fill="#ff7a4a" stroke="#3a4a96" stroke-width="2.59" stroke-linejoin="round" stroke-linecap="round"/><path d="M6,24 C12,27 17,31 20,36.5 M17,24.5 C23,27 27,31 29,36" fill="none" stroke="#ffa27a" stroke-width="2.6" stroke-linecap="round"/></g></g><g transform="translate(19,64) scale(1,1) rotate(0)"><rect x="-8" y="-4" width="16" height="28" rx="7" fill="#f3f7ff" stroke="#3a4a96" stroke-width="2.59" stroke-linejoin="round" stroke-linecap="round"/><path d="M2,-2 C6,-1 8,1 8,4 L8,20 C8,22 6,23 4,23 Z" fill="#c9d7f1"/><g transform="translate(0,0)"><path d="M-7,22 C2,19 18,20 34,27 C40,30 39,36 33,37 C18,39 2,38 -8,36 C-12,33 -12,25 -7,22 Z" fill="#ff7a4a" stroke="#3a4a96" stroke-width="2.59" stroke-linejoin="round" stroke-linecap="round"/><path d="M6,24 C12,27 17,31 20,36.5 M17,24.5 C23,27 27,31 29,36" fill="none" stroke="#ffa27a" stroke-width="2.6" stroke-linecap="round"/></g></g><g transform="translate(-40,10) scale(-1,1) rotate(-14)"><rect x="-7.5" y="-6" width="15" height="36" rx="7.5" fill="#f3f7ff" stroke="#3a4a96" stroke-width="2.59" stroke-linejoin="round" stroke-linecap="round"/><path d="M1.5,-4 C5,-3 7.5,-1 7.5,2 L7.5,26 C7.5,28 6,29.5 4,29.5 Z" fill="#c9d7f1"/><rect x="-9" y="22" width="18" height="8" rx="3.5" fill="#6a75d6" stroke="#3a4a96" stroke-width="2.59" stroke-linejoin="round" stroke-linecap="round"/><ellipse cx="-9" cy="35" rx="5" ry="7" transform="rotate(-28 -9 35)" fill="#4f9df2" stroke="#3a4a96" stroke-width="2.59" stroke-linejoin="round" stroke-linecap="round"/><path d="M-10,33 C-10,44 -5,48 1,48 C8,48 11,43 11,36 C11,30 7,28 0,28 C-6,28 -10,29 -10,33 Z" fill="#4f9df2" stroke="#3a4a96" stroke-width="2.59" stroke-linejoin="round" stroke-linecap="round"/><path d="M5,31 C9,33 10,37 9,41" fill="none" stroke="#3b84dc" stroke-width="2.6" stroke-linecap="round"/></g><rect x="-13" y="-12" width="26" height="14" rx="5" fill="#aebfe0" stroke="#3a4a96" stroke-width="2.59" stroke-linejoin="round" stroke-linecap="round"/><path d="M-29,-3 L29,-3 C37,-3 41,3 42,11 L45,51 C46,61 39,68 29,68 L-29,68 C-39,68 -46,61 -45,51 L-42,11 C-41,3 -37,-3 -29,-3 Z" fill="#f3f7ff" stroke="#3a4a96" stroke-width="2.59" stroke-linejoin="round" stroke-linecap="round"/><path d="M22,-3 L29,-3 C37,-3 41,3 42,11 L45,51 C46,61 39,68 29,68 L23,68 C32,65 37,58 36,48 L34,12 C33,4 29,-1 22,-3 Z" fill="#c9d7f1"/><path d="M-29,-3 L29,-3 C37,-3 41,3 42,11 L45,51 C46,61 39,68 29,68 L-29,68 C-39,68 -46,61 -45,51 L-42,11 C-41,3 -37,-3 -29,-3 Z" fill="none" stroke="#3a4a96" stroke-width="2.59" stroke-linejoin="round" stroke-linecap="round"/><rect x="-21" y="9" width="42" height="33" rx="9" fill="#3a8ee6" stroke="#3a4a96" stroke-width="2.59" stroke-linejoin="round" stroke-linecap="round"/><path d="M-13,28 q4.3,-6 8.6,0 t8.6,0 t8.6,0" fill="none" stroke="#cfe2ff" stroke-width="3" stroke-linecap="round"/><circle cx="11" cy="17.5" r="3" fill="none" stroke="#cfe2ff" stroke-width="2"/><circle cx="5.5" cy="15" r="1.7" fill="#cfe2ff"/><path d="M-45.4,50 L45.4,50 L45.6,58 C45.8,60 45.8,61 45.6,62 L-45.6,62 C-45.8,61 -45.8,60 -45.6,58 Z" fill="#6a75d6" stroke="#3a4a96" stroke-width="2.59" stroke-linejoin="round" stroke-linecap="round"/><rect x="-6" y="48.5" width="12" height="15" rx="3" fill="#ffd055" stroke="#3a4a96" stroke-width="2.59" stroke-linejoin="round" stroke-linecap="round"/><g transform="rotate(-6 0 -8)"><path d="M0,-95 L0,-111" fill="none" stroke="#3a4a96" stroke-width="8.97" stroke-linecap="round"/><path d="M0,-95 L0,-111" fill="none" stroke="#8fb8ff" stroke-width="3.8" stroke-linecap="round"/><circle cx="0" cy="-118" r="20" fill="url(#30-topics-ai-features-bot1-glow)"/><circle cx="0" cy="-118" r="8.2" fill="#ffd055" stroke="#3a4a96" stroke-width="2.59" stroke-linejoin="round" stroke-linecap="round"/><circle cx="-2.6" cy="-120.6" r="2.5" fill="#fff3c4"/><path d="M-47,-44 C-47,-78 -26,-97 0,-97 C26,-97 47,-78 47,-44 L47,-28 C47,-15 39,-8 26,-8 L-26,-8 C-39,-8 -47,-15 -47,-28 Z" fill="#f3f7ff" stroke="#3a4a96" stroke-width="2.59" stroke-linejoin="round" stroke-linecap="round"/><path d="M18,-94 C37,-87 47,-68 47,-44 L47,-28 C47,-15 39,-8 26,-8 L18,-8 C31,-10 39,-18 39,-30 L39,-46 C39,-68 32,-84 18,-94 Z" fill="#c9d7f1"/><ellipse cx="-22" cy="-82" rx="11" ry="5.5" transform="rotate(-28 -22 -82)" fill="#ffffff"/><path d="M-47,-44 C-47,-78 -26,-97 0,-97 C26,-97 47,-78 47,-44 L47,-28 C47,-15 39,-8 26,-8 L-26,-8 C-39,-8 -47,-15 -47,-28 Z" fill="none" stroke="#3a4a96" stroke-width="2.59" stroke-linejoin="round" stroke-linecap="round"/><path d="M-46.4,-58 Q0,-51 46.4,-58 L47,-43 Q0,-36 -47,-43 Z" fill="#6a75d6" stroke="#3a4a96" stroke-width="2.59" stroke-linejoin="round" stroke-linecap="round"/><circle cx="-48" cy="-50" r="9" fill="#6a75d6" stroke="#3a4a96" stroke-width="2.59" stroke-linejoin="round" stroke-linecap="round"/><circle cx="-48" cy="-50" r="3.4" fill="#cfe2ff"/><ellipse cx="0" cy="-49" rx="40" ry="25" fill="#3a4a96" stroke="#3a4a96" stroke-width="5.17" stroke-linejoin="round"/><ellipse cx="0" cy="-29" rx="15.5" ry="12.5" fill="#3a4a96" stroke="#3a4a96" stroke-width="5.17" stroke-linejoin="round"/><ellipse cx="0" cy="-49" rx="40" ry="25" fill="#4f8ff0"/><ellipse cx="0" cy="-29" rx="15.5" ry="12.5" fill="#4f8ff0"/><path d="M-31,-67 C-18,-75 18,-75 31,-67" fill="none" stroke="#8fb8ff" stroke-width="3.2" stroke-linecap="round"/><circle cx="-35.5" cy="-49" r="2.3" fill="#cfe2ff"/><circle cx="35.5" cy="-49" r="2.3" fill="#cfe2ff"/><path d="M-32.5,-49 C-32.5,-61 -18,-67.5 0,-67.5 C18,-67.5 32.5,-61 32.5,-49 C32.5,-39 24,-33.5 13,-32.5 C11,-25 6,-21.5 0,-21.5 C-6,-21.5 -11,-25 -13,-32.5 C-24,-33.5 -32.5,-39 -32.5,-49 Z" fill="url(#30-topics-ai-features-bot1-deep)" stroke="#3a4a96" stroke-width="1.81" stroke-linejoin="round"/><circle cx="-13" cy="-50" r="13" fill="url(#30-topics-ai-features-bot1-eyeglow)"/><circle cx="13" cy="-50" r="13" fill="url(#30-topics-ai-features-bot1-eyeglow)"/><path d="M-19,-48 Q-13,-57 -7,-48" fill="none" stroke="#ffffff" stroke-width="3.8" stroke-linecap="round"/><path d="M7,-48 Q13,-57 19,-48" fill="none" stroke="#ffffff" stroke-width="3.8" stroke-linecap="round"/><ellipse cx="-24" cy="-39" rx="5" ry="3" fill="#f26b4f" fill-opacity=".6"/><ellipse cx="24" cy="-39" rx="5" ry="3" fill="#f26b4f" fill-opacity=".6"/><path d="M-7,-36 Q0,-35.4 7,-36 Q6,-27 0,-27 Q-6,-27 -7,-36 Z" fill="#e8f0ff"/><path d="M-3.6,-28.6 Q0,-32.5 3.6,-28.6 Q0,-27 -3.6,-28.6 Z" fill="#f26b4f"/><path d="M-25,-57 C-22,-62 -15,-65 -8,-65.5" fill="none" stroke="#ffffff" stroke-opacity=".35" stroke-width="3.6" stroke-linecap="round"/><path d="M27,-21 C44,-17 58,-25 58,-42 L58,-96 C58,-104 54,-108 47,-109" fill="none" stroke="#3a4a96" stroke-width="14.67" stroke-linecap="round"/><path d="M27,-21 C44,-17 58,-25 58,-42 L58,-96 C58,-104 54,-108 47,-109" fill="none" stroke="#ff7a4a" stroke-width="9.5" stroke-linecap="round"/><path d="M53.4,-76 L62.6,-76 M53.4,-87 L62.6,-87" stroke="#ffffff" stroke-width="3" stroke-linecap="round"/><rect x="17" y="-27" width="13" height="10" rx="4" transform="rotate(14 23.5 -22)" fill="#6a75d6" stroke="#3a4a96" stroke-width="2.59" stroke-linejoin="round" stroke-linecap="round"/><rect x="45" y="-56" width="20" height="11" rx="4" fill="#6a75d6" stroke="#3a4a96" stroke-width="2.59" stroke-linejoin="round" stroke-linecap="round"/></g><g transform="translate(40,10) scale(1,1) rotate(-152)"><rect x="-7.5" y="-6" width="15" height="36" rx="7.5" fill="#f3f7ff" stroke="#3a4a96" stroke-width="2.59" stroke-linejoin="round" stroke-linecap="round"/><path d="M1.5,-4 C5,-3 7.5,-1 7.5,2 L7.5,26 C7.5,28 6,29.5 4,29.5 Z" fill="#c9d7f1"/><rect x="-9" y="22" width="18" height="8" rx="3.5" fill="#6a75d6" stroke="#3a4a96" stroke-width="2.59" stroke-linejoin="round" stroke-linecap="round"/><ellipse cx="-9" cy="35" rx="5" ry="7" transform="rotate(-28 -9 35)" fill="#4f9df2" stroke="#3a4a96" stroke-width="2.59" stroke-linejoin="round" stroke-linecap="round"/><path d="M-10,33 C-10,44 -5,48 1,48 C8,48 11,43 11,36 C11,30 7,28 0,28 C-6,28 -10,29 -10,33 Z" fill="#4f9df2" stroke="#3a4a96" stroke-width="2.59" stroke-linejoin="round" stroke-linecap="round"/><path d="M5,31 C9,33 10,37 9,41" fill="none" stroke="#3b84dc" stroke-width="2.6" stroke-linecap="round"/></g><path d="M62,-104 C70,-112 74,-120 74,-130 M90,-94 C98,-100 102,-108 102,-116" fill="none" stroke="#8fb8ff" stroke-width="3.4" stroke-linecap="round"/></g><g transform="translate(121.3,65.8) scale(-0.143,0.143)"><path d="M33,0 C43,-7 52,-15 62,-21 C57.5,-7 57.5,7 62,21 C52,15 43,7 33,0 Z" fill="#3b84dc"/><path d="M-13,-20 C-4,-36 15,-35 23,-15 Z" fill="#3b84dc"/><path d="M-50,0 C-37,-29 19,-29 40,0 C19,29 -37,29 -50,0 Z" fill="#4f9df2"/><path d="M-47.5,4.5 C-33,24 16,25 37.5,4 C15,14.5 -30,15 -47.5,4.5 Z" fill="#80b8f6"/><path d="M-9,4 C-1,-1 11,2 16,11 C7,14 -3,12 -9,4 Z" fill="#3b84dc"/><path d="M-18,-14 Q-11,0 -18,14" fill="none" stroke="#ffffff" stroke-opacity=".6" stroke-width="3.2" stroke-linecap="round"/><circle cx="-31" cy="-5" r="6.6" fill="#ffffff"/><circle cx="-32.6" cy="-5" r="3.3" fill="#0b1530"/><circle cx="-33.6" cy="-6.3" r="1.1" fill="#ffffff"/></g><g transform="translate(140.2,73.3) scale(-0.146,0.146)"><path d="M33,0 C43,-7 52,-15 62,-21 C57.5,-7 57.5,7 62,21 C52,15 43,7 33,0 Z" fill="#3b84dc"/><path d="M-13,-20 C-4,-36 15,-35 23,-15 Z" fill="#3b84dc"/><path d="M-50,0 C-37,-29 19,-29 40,0 C19,29 -37,29 -50,0 Z" fill="#4f9df2"/><path d="M-47.5,4.5 C-33,24 16,25 37.5,4 C15,14.5 -30,15 -47.5,4.5 Z" fill="#80b8f6"/><path d="M-9,4 C-1,-1 11,2 16,11 C7,14 -3,12 -9,4 Z" fill="#3b84dc"/><path d="M-18,-14 Q-11,0 -18,14" fill="none" stroke="#ffffff" stroke-opacity=".6" stroke-width="3.2" stroke-linecap="round"/><circle cx="-31" cy="-5" r="6.6" fill="#ffffff"/><circle cx="-32.6" cy="-5" r="3.3" fill="#0b1530"/><circle cx="-33.6" cy="-6.3" r="1.1" fill="#ffffff"/></g><g transform="translate(160.1,79.6) scale(-0.161,0.161)"><path d="M33,0 C43,-7 52,-15 62,-21 C57.5,-7 57.5,7 62,21 C52,15 43,7 33,0 Z" fill="#3b84dc"/><path d="M-13,-20 C-4,-36 15,-35 23,-15 Z" fill="#3b84dc"/><path d="M-50,0 C-37,-29 19,-29 40,0 C19,29 -37,29 -50,0 Z" fill="#4f9df2"/><path d="M-47.5,4.5 C-33,24 16,25 37.5,4 C15,14.5 -30,15 -47.5,4.5 Z" fill="#80b8f6"/><path d="M-9,4 C-1,-1 11,2 16,11 C7,14 -3,12 -9,4 Z" fill="#3b84dc"/><path d="M-18,-14 Q-11,0 -18,14" fill="none" stroke="#ffffff" stroke-opacity=".6" stroke-width="3.2" stroke-linecap="round"/><circle cx="-31" cy="-5" r="6.6" fill="#ffffff"/><circle cx="-32.6" cy="-5" r="3.3" fill="#0b1530"/><circle cx="-33.6" cy="-6.3" r="1.1" fill="#ffffff"/></g><g transform="translate(142.2,88.1) scale(-0.148,0.148)"><path d="M33,0 C43,-7 52,-15 62,-21 C57.5,-7 57.5,7 62,21 C52,15 43,7 33,0 Z" fill="#3b84dc"/><path d="M-13,-20 C-4,-36 15,-35 23,-15 Z" fill="#3b84dc"/><path d="M-50,0 C-37,-29 19,-29 40,0 C19,29 -37,29 -50,0 Z" fill="#4f9df2"/><path d="M-47.5,4.5 C-33,24 16,25 37.5,4 C15,14.5 -30,15 -47.5,4.5 Z" fill="#80b8f6"/><path d="M-9,4 C-1,-1 11,2 16,11 C7,14 -3,12 -9,4 Z" fill="#3b84dc"/><path d="M-18,-14 Q-11,0 -18,14" fill="none" stroke="#ffffff" stroke-opacity=".6" stroke-width="3.2" stroke-linecap="round"/><circle cx="-31" cy="-5" r="6.6" fill="#ffffff"/><circle cx="-32.6" cy="-5" r="3.3" fill="#0b1530"/><circle cx="-33.6" cy="-6.3" r="1.1" fill="#ffffff"/></g><path d="M29.8,246 C29.7,245.2 29.5,242.8 29.3,241.2 C29.1,239.6 28.8,237.9 28.4,236.3 C28.1,234.7 27.7,233.1 27.3,231.5 C26.9,229.9 26.5,228.3 26.1,226.7 C25.8,225.1 25.4,223.4 25.2,221.8 C24.9,220.2 24.7,218.6 24.7,217 C24.6,215.4 24.6,213.8 24.8,212.2 C24.9,210.6 25.2,208.9 25.6,207.3 C25.9,205.7 26.4,204.1 26.9,202.5 C27.4,200.9 28.1,199.3 28.6,197.7 C29.2,196.1 29.9,194.4 30.4,192.8 C31,191.2 31.5,189.6 31.9,188 C32.3,186.4 32.6,184.8 32.7,183.2 C32.9,181.6 32.9,179.9 32.7,178.3 C32.5,176.7 32.2,175.1 31.8,173.5 C31.3,171.9 30.7,170.3 30,168.7 C29.3,167.1 28.5,165.4 27.7,163.8 C26.9,162.2 26.1,160.6 25.3,159 C24.6,157.4 23.8,155.8 23.2,154.2 C22.7,152.6 22.2,150.9 22,149.3 C21.7,147.7 21.6,146.1 21.8,144.5 C21.9,142.9 22.2,141.3 22.7,139.7 C23.3,138.1 24,136.4 24.8,134.8 C25.6,133.2 27.2,130.8 27.6,130" fill="none" stroke="#2fb78f" stroke-width="5" stroke-linecap="round" stroke-linejoin="round"/><path d="M51.6,246 C51.7,245.5 52,243.9 52.1,242.8 C52.3,241.8 52.4,240.7 52.5,239.7 C52.6,238.6 52.6,237.6 52.7,236.5 C52.7,235.4 52.7,234.4 52.6,233.3 C52.5,232.3 52.4,231.2 52.3,230.2 C52.1,229.1 51.9,228.1 51.7,227 C51.5,225.9 51.2,224.9 50.9,223.8 C50.6,222.8 50.2,221.7 49.9,220.7 C49.5,219.6 49.1,218.6 48.8,217.5 C48.4,216.4 48,215.4 47.7,214.3 C47.3,213.3 46.9,212.2 46.6,211.2 C46.3,210.1 46,209.1 45.8,208 C45.6,206.9 45.4,205.9 45.3,204.8 C45.2,203.8 45.1,202.7 45.1,201.7 C45.1,200.6 45.2,199.6 45.4,198.5 C45.5,197.4 45.7,196.4 46,195.3 C46.3,194.3 46.7,193.2 47.1,192.2 C47.5,191.1 48,190.1 48.5,189 C49,187.9 49.5,186.9 50.1,185.8 C50.7,184.8 51.3,183.7 51.8,182.7 C52.4,181.6 53,180.6 53.5,179.5 C54.1,178.4 54.6,177.4 55,176.3 C55.5,175.3 55.9,174.2 56.2,173.2 C56.5,172.1 56.8,170.5 56.9,170" fill="none" stroke="#7fd6b9" stroke-width="4" stroke-linecap="round" stroke-linejoin="round"/><g fill="none" stroke="#ff7a4a" stroke-width="11.4" stroke-linecap="round" stroke-linejoin="round"><path d="M820,244 C820,240.2 820.3,228.2 820,221.2 C819.7,214.2 818.7,205.4 818.5,202.2"/><path d="M820,228.8 C821.9,226.9 829.2,222.5 831.4,217.4 C833.6,212.3 832.9,204.1 832.9,198.4 C832.9,192.7 831.7,185.7 831.4,183.2"/><path d="M820,225 C817.8,223.2 809.9,219.3 807.1,214.4 C804.3,209.4 803.9,198.5 803.3,195.4"/><path d="M818.5,202.2 C818.2,198.4 817,185.4 817,179.4 C817,173.4 818.2,168.3 818.5,166.1"/><path d="M817,183.2 C815.6,181.6 810.2,176.7 808.6,173.3 C807,169.9 807.3,164.5 807.1,162.7"/><path d="M832.2,198.4 C833.8,196.8 840,192.3 842,188.5 C844.1,184.7 843.9,177.8 844.3,175.6"/><path d="M803.3,195.4 C801.9,194 796.6,190 794.9,187 C793.3,184 793.7,178.8 793.4,177.1"/><path d="M831.8,187 C830.7,185.2 826.4,179.5 825.3,176.4 C824.2,173.2 825.3,169.4 825.3,168"/><path d="M818.5,179.4 C819.7,177.8 824.8,171.2 826.1,169.5"/></g><path d="M749.8,220.3 L752,215.5 L764,215.5 L766.2,220.3 Z" fill="#ff7a4a"/><circle cx="743" cy="215.8" r="2.6" fill="#ffd055"/><circle cx="743.5" cy="212" r="2.6" fill="#ffd055"/><circle cx="745" cy="208.3" r="2.6" fill="#ffd055"/><circle cx="747.4" cy="205.2" r="2.6" fill="#ffd055"/><circle cx="750.5" cy="202.9" r="2.6" fill="#ffd055"/><circle cx="754.1" cy="201.4" r="2.6" fill="#ffd055"/><circle cx="758" cy="200.8" r="2.6" fill="#ffd055"/><circle cx="761.9" cy="201.4" r="2.6" fill="#ffd055"/><circle cx="765.5" cy="202.9" r="2.6" fill="#ffd055"/><circle cx="768.6" cy="205.2" r="2.6" fill="#ffd055"/><circle cx="771" cy="208.3" r="2.6" fill="#ffd055"/><circle cx="772.5" cy="212" r="2.6" fill="#ffd055"/><circle cx="773" cy="215.8" r="2.6" fill="#ffd055"/><path d="M743,215.8 A15,15 0 0 1 773,215.8 Z" fill="#ffd055"/><circle cx="749.7" cy="212.5" r="0.9" fill="#e89a1c"/><circle cx="753.5" cy="213.2" r="0.9" fill="#e89a1c"/><circle cx="753.7" cy="212.1" r="0.9" fill="#e89a1c"/><circle cx="755.2" cy="212.8" r="0.9" fill="#e89a1c"/><circle cx="754.8" cy="211.2" r="0.9" fill="#e89a1c"/><circle cx="754.7" cy="207.4" r="0.9" fill="#e89a1c"/><circle cx="756.1" cy="209.9" r="0.9" fill="#e89a1c"/><circle cx="756.9" cy="207.7" r="0.9" fill="#e89a1c"/><circle cx="758.6" cy="210.6" r="0.9" fill="#e89a1c"/><circle cx="759.3" cy="210.2" r="0.9" fill="#e89a1c"/><circle cx="761.2" cy="207" r="0.9" fill="#e89a1c"/><circle cx="760.2" cy="212.3" r="0.9" fill="#e89a1c"/><circle cx="766" cy="207.8" r="0.9" fill="#e89a1c"/><circle cx="764.2" cy="209.8" r="0.9" fill="#e89a1c"/><circle cx="763" cy="212.6" r="0.9" fill="#e89a1c"/><circle cx="765" cy="212.7" r="0.9" fill="#e89a1c"/><path d="M-44,11.2 Q-25.5,7.6 -7,11.2 T30,11.2 T67,11.2 T104,11.2 T141,11.2 T178,11.2 T215,11.2 T252,11.2 T289,11.2 T326,11.2 T363,11.2 T400,11.2 T437,11.2 T474,11.2 T511,11.2 T548,11.2 T585,11.2 T622,11.2 T659,11.2 T696,11.2 T733,11.2 T770,11.2 T807,11.2 T844,11.2 T881,11.2 T918,11.2 T955,11.2 L954.0,-1 L-74.0,-1 Z" fill="#1b3f8f"/><path d="M-74,7.6 Q-55.5,4 -37,7.6 T0,7.6 T37,7.6 T74,7.6 T111,7.6 T148,7.6 T185,7.6 T222,7.6 T259,7.6 T296,7.6 T333,7.6 T370,7.6 T407,7.6 T444,7.6 T481,7.6 T518,7.6 T555,7.6 T592,7.6 T629,7.6 T666,7.6 T703,7.6 T740,7.6 T777,7.6 T814,7.6 T851,7.6 T888,7.6 T925,7.6 T962,7.6 L954.0,-1 L-74.0,-1 Z" fill="#2f6fe0"/><path d="M-74,4 Q-55.5,2.4 -37,4 T0,4 T37,4 T74,4 T111,4 T148,4 T185,4 T222,4 T259,4 T296,4 T333,4 T370,4 T407,4 T444,4 T481,4 T518,4 T555,4 T592,4 T629,4 T666,4 T703,4 T740,4 T777,4 T814,4 T851,4 T888,4 T925,4 T962,4" stroke="#ffffff" stroke-opacity=".24" stroke-width=".9" stroke-linecap="round" stroke-dasharray="22.2 51.8"/></g><rect x=".75" y=".75" width="878.5" height="238.5" rx="17.25" fill="none" stroke="#1d3a72" stroke-width="1.5"/></svg>
