<svg xmlns="http://www.w3.org/2000/svg" viewBox="0 0 880 240" width="880" height="240"><defs><clipPath id="30-topics-crawling-card"><rect width="880" height="240" rx="18"/></clipPath><radialGradient id="30-topics-crawling-lamp"><stop offset="0" stop-color="#ffd055" stop-opacity="0.6"/><stop offset=".5" stop-color="#ffd055" stop-opacity="0.18"/><stop offset="1" stop-color="#ffd055" stop-opacity="0"/></radialGradient><linearGradient id="30-topics-crawling-bg" x1="0" y1="0" x2="0" y2="1"><stop offset="0" stop-color="#16336f"/><stop offset="0.25" stop-color="#112a5e"/><stop offset="0.5" stop-color="#0d214d"/><stop offset="0.75" stop-color="#0a1a3e"/><stop offset="1" stop-color="#08142e"/></linearGradient><radialGradient id="30-topics-crawling-glow"><stop offset="0" stop-color="#9cc0ff" stop-opacity="0.28"/><stop offset=".5" stop-color="#9cc0ff" stop-opacity="0.1"/><stop offset="1" stop-color="#9cc0ff" stop-opacity="0"/></radialGradient><linearGradient id="30-topics-crawling-rays-ray" x1="0" y1="0" x2="0" y2="1"><stop offset="0" stop-color="#9cc0ff" stop-opacity="0.22"/><stop offset=".55" stop-color="#9cc0ff" stop-opacity="0.08"/><stop offset="1" stop-color="#9cc0ff" stop-opacity="0"/></linearGradient></defs><g clip-path="url(#30-topics-crawling-card)"><rect width="880" height="240" fill="url(#30-topics-crawling-bg)"/><ellipse cx="470" cy="-40" rx="380" ry="209" fill="url(#30-topics-crawling-glow)"/><path d="M-7.5,9 L35.2,9 L-1.7,209 L-108.3,209 Z" fill="url(#30-topics-crawling-rays-ray)" fill-opacity="0.28"/><path d="M0.6,9 L27.1,9 L-22,209 L-88.1,209 Z" fill="url(#30-topics-crawling-rays-ray)" fill-opacity="0.28"/><path d="M7.5,9 L20.3,9 L-39,209 L-71,209 Z" fill="url(#30-topics-crawling-rays-ray)" fill-opacity="0.28"/><path d="M206.4,9 L231.1,9 L224.9,220.7 L147.5,220.7 Z" fill="url(#30-topics-crawling-rays-ray)" fill-opacity="0.33"/><path d="M211.1,9 L226.4,9 L210.2,220.7 L162.2,220.7 Z" fill="url(#30-topics-crawling-rays-ray)" fill-opacity="0.33"/><path d="M215.1,9 L222.5,9 L197.8,220.7 L174.6,220.7 Z" fill="url(#30-topics-crawling-rays-ray)" fill-opacity="0.33"/><path d="M338.9,9 L365.3,9 L383.6,206.2 L308.8,206.2 Z" fill="url(#30-topics-crawling-rays-ray)" fill-opacity="0.19"/><path d="M344,9 L360.3,9 L369.4,206.2 L323.1,206.2 Z" fill="url(#30-topics-crawling-rays-ray)" fill-opacity="0.19"/><path d="M348.2,9 L356.1,9 L357.5,206.2 L335,206.2 Z" fill="url(#30-topics-crawling-rays-ray)" fill-opacity="0.19"/><path d="M481.5,9 L522.7,9 L590.2,220.6 L460.4,220.6 Z" fill="url(#30-topics-crawling-rays-ray)" fill-opacity="0.23"/><path d="M489.4,9 L514.9,9 L565.6,220.6 L485.1,220.6 Z" fill="url(#30-topics-crawling-rays-ray)" fill-opacity="0.23"/><path d="M496,9 L508.3,9 L544.8,220.6 L505.9,220.6 Z" fill="url(#30-topics-crawling-rays-ray)" fill-opacity="0.23"/><path d="M678,9 L717.6,9 L805.4,194.3 L698.2,194.3 Z" fill="url(#30-topics-crawling-rays-ray)" fill-opacity="0.25"/><path d="M685.5,9 L710,9 L785,194.3 L718.5,194.3 Z" fill="url(#30-topics-crawling-rays-ray)" fill-opacity="0.25"/><path d="M691.8,9 L703.7,9 L767.8,194.3 L735.7,194.3 Z" fill="url(#30-topics-crawling-rays-ray)" fill-opacity="0.25"/><path d="M825.4,9 L856.8,9 L955.6,180.2 L871.9,180.2 Z" fill="url(#30-topics-crawling-rays-ray)" fill-opacity="0.22"/><path d="M831.3,9 L850.8,9 L939.7,180.2 L887.8,180.2 Z" fill="url(#30-topics-crawling-rays-ray)" fill-opacity="0.22"/><path d="M836.4,9 L845.8,9 L926.3,180.2 L901.2,180.2 Z" fill="url(#30-topics-crawling-rays-ray)" fill-opacity="0.22"/><g fill="none" stroke="#1d3468" stroke-width="2.2" stroke-linecap="round" stroke-linejoin="round"><path d="M123.5,185.6 C123.5,184.4 123.6,180.6 123.5,178.4 C123.4,176.2 123.1,173.4 123,172.4"/><path d="M123.5,180.8 C124.1,180.2 126.4,178.8 127.1,177.2 C127.8,175.6 127.6,173 127.6,171.2 C127.6,169.4 127.2,167.2 127.1,166.4"/><path d="M123.5,179.6 C122.8,179.1 120.3,177.8 119.4,176.3 C118.5,174.7 118.4,171.3 118.2,170.3"/><path d="M123,172.4 C122.9,171.2 122.5,167.1 122.5,165.2 C122.5,163.3 122.9,161.7 123,161"/><path d="M122.5,166.4 C122.1,165.9 120.4,164.4 119.9,163.3 C119.4,162.2 119.5,160.5 119.4,159.9"/><path d="M127.3,171.2 C127.9,170.7 129.8,169.3 130.5,168.1 C131.1,166.9 131.1,164.7 131.2,164"/><path d="M118.2,170.3 C117.8,169.8 116.1,168.6 115.6,167.6 C115.1,166.7 115.2,165 115.1,164.5"/><path d="M127.2,167.6 C126.9,167.1 125.5,165.3 125.2,164.3 C124.8,163.3 125.2,162.1 125.2,161.6"/><path d="M123,165.2 C123.4,164.7 125,162.6 125.4,162.1"/></g><g fill="none" stroke="#1d3468" stroke-width="1.6" stroke-linecap="round"><path d="M833.5,181.5 Q830.3,172 820.6,173.4"/><path d="M825.5,176.5 l-1.9,-3.1" stroke-width="1.3"/><path d="M833.5,181.5 Q831.1,171.7 823.7,169.2"/><path d="M833.5,181.5 Q832.2,171.4 828.1,166.2"/><path d="M830.2,172 l-1.9,-3.1" stroke-width="1.3"/><path d="M833.5,181.5 Q833.5,169 833.5,161.3"/><path d="M833.5,181.5 Q835.1,169.7 839.8,163.5"/><path d="M837.4,170.3 l1.9,-3.1" stroke-width="1.3"/><path d="M833.5,181.5 Q835.9,172.2 842.9,169.7"/><path d="M833.5,181.5 Q836.3,173.3 844.7,174.5"/><path d="M840.4,177.1 l1.9,-3.1" stroke-width="1.3"/></g><path d="M-42,173.9 C-35,174.5 -14,176.4 0,177.5 C14,178.7 28,180 42,180.8 C56,181.5 70,181.9 84.1,182.1 C98.1,182.2 112.1,181.8 126.1,181.6 C140.1,181.3 154.1,180.9 168.1,180.7 C182.1,180.5 196.1,180.5 210.1,180.4 C224.1,180.4 238.2,180.5 252.2,180.3 C266.2,180 280.2,179.7 294.2,179 C308.2,178.3 322.2,177.2 336.2,176.2 C350.2,175.2 364.2,173.9 378.2,173.1 C392.3,172.4 406.3,171.8 420.3,171.8 C434.3,171.9 448.3,172.5 462.3,173.3 C476.3,174.2 490.3,175.7 504.3,176.8 C518.3,177.9 532.3,179.2 546.4,180 C560.4,180.8 574.4,181.2 588.4,181.4 C602.4,181.6 616.4,181.4 630.4,181.3 C644.4,181.2 658.4,180.9 672.4,180.8 C686.5,180.7 700.5,180.9 714.5,180.9 C728.5,180.9 742.5,181.2 756.5,181 C770.5,180.8 784.5,180.5 798.5,179.8 C812.5,179.1 826.5,177.9 840.6,176.9 C854.6,175.8 868.6,174.4 882.6,173.5 C896.6,172.7 917.6,172.1 924.6,171.8 L920,250 L-40,250 Z" fill="#16295a"/><g fill="none" stroke="#243e80" stroke-width="1.8" stroke-linecap="round"><path d="M136.5,206.2 Q132.2,193.7 119.4,195.5"/><path d="M125.9,199.6 l-2.5,-4" stroke-width="1.4"/><path d="M136.5,206.2 Q133,193.7 122.7,191.6"/><path d="M136.5,206.2 Q134,193.6 126.7,188.5"/><path d="M130.4,195.2 l-2.5,-4" stroke-width="1.4"/><path d="M136.5,206.2 Q134.9,190.9 130.3,182.3"/><path d="M136.5,206.2 Q136.5,189.1 136.5,178.6"/><path d="M136.5,189.1 l2.5,-4" stroke-width="1.4"/><path d="M136.5,206.2 Q137.9,192.1 142.1,184.3"/><path d="M136.5,206.2 Q139,193.3 146.5,188.1"/><path d="M142.7,194.9 l2.5,-4" stroke-width="1.4"/><path d="M136.5,206.2 Q140.2,192.7 151.4,190.5"/><path d="M136.5,206.2 Q140.5,194.2 152.8,195.9"/><path d="M146.6,199.8 l2.5,-4" stroke-width="1.4"/></g><path d="M-41.1,192.4 C-34.3,192.5 -13.7,192.5 0,193 C13.7,193.5 27.4,194.5 41.1,195.6 C54.8,196.6 68.5,198.2 82.2,199.2 C95.9,200.3 109.6,201.5 123.4,201.9 C137.1,202.3 150.8,202.2 164.5,201.8 C178.2,201.3 191.9,200 205.6,199 C219.3,198 233,196.5 246.7,195.5 C260.4,194.6 274.1,193.8 287.8,193.3 C301.5,192.9 315.2,192.9 328.9,192.8 C342.7,192.8 356.4,193.1 370.1,193.1 C383.8,193.2 397.5,193.2 411.2,193.1 C424.9,193.1 438.6,192.8 452.3,192.9 C466,193 479.7,193.1 493.4,193.7 C507.1,194.2 520.8,195.2 534.5,196.2 C548.2,197.2 562,198.7 575.7,199.7 C589.4,200.7 603.1,201.7 616.8,202 C630.5,202.3 644.2,202.1 657.9,201.5 C671.6,200.9 685.3,199.6 699,198.5 C712.7,197.4 726.4,195.8 740.1,194.9 C753.8,193.9 767.5,193.1 781.3,192.7 C795,192.3 808.7,192.4 822.4,192.4 C836.1,192.5 849.8,192.9 863.5,193.1 C877.2,193.2 890.9,193.3 904.6,193.4 C918.3,193.5 938.9,193.5 945.7,193.5 L920,250 L-40,250 Z" fill="#1b3270"/><g fill="#22397a"><circle cx="565.1" cy="214.4" r="1"/><circle cx="84" cy="205.8" r="1.7"/><circle cx="789.4" cy="199.8" r="1.9"/><circle cx="810.4" cy="208.5" r="1.1"/><circle cx="88.5" cy="215" r="1.1"/><circle cx="595.7" cy="213.2" r="1.1"/><circle cx="64.6" cy="207.1" r="1.5"/><circle cx="557.9" cy="211.2" r="1.3"/><circle cx="549.1" cy="209.5" r="1.5"/><circle cx="14.3" cy="203.8" r="1.7"/><circle cx="346" cy="205.6" r="1.3"/><circle cx="220.5" cy="212.8" r="1.6"/><circle cx="163.2" cy="219.3" r="1.6"/><circle cx="680.7" cy="212.7" r="1.5"/><circle cx="450.2" cy="204.1" r="1.3"/><circle cx="146.1" cy="210.1" r="1.6"/><circle cx="409.2" cy="200.5" r="1.1"/><circle cx="321.5" cy="208.6" r="1.6"/><circle cx="53.7" cy="206.9" r="1.3"/><circle cx="22.7" cy="209.1" r="1.9"/><circle cx="258.4" cy="200.5" r="1"/><circle cx="627.9" cy="214.5" r="1.5"/><circle cx="40.6" cy="202.6" r="1.5"/><circle cx="21" cy="211.6" r="1.9"/></g><path d="M-33.1,214.3 C-27.6,214.4 -11,214.6 0,214.8 C11,215 22.1,215 33.1,215.2 C44.2,215.4 55.2,215.8 66.3,216.1 C77.3,216.4 88.4,216.9 99.4,217 C110.5,217.1 121.5,217.2 132.6,216.9 C143.6,216.6 154.7,216 165.7,215.3 C176.8,214.6 187.8,213.4 198.9,212.6 C209.9,211.8 221,210.9 232,210.5 C243.1,210.1 254.1,210 265.2,210.1 C276.2,210.3 287.3,210.9 298.3,211.5 C309.4,212 320.4,212.8 331.4,213.3 C342.5,213.9 353.5,214.3 364.6,214.6 C375.6,214.9 386.7,215 397.7,215.1 C408.8,215.3 419.8,215.3 430.9,215.4 C441.9,215.6 453,215.9 464,216.1 C475.1,216.4 486.1,216.8 497.2,216.9 C508.2,216.9 519.3,217 530.3,216.6 C541.4,216.3 552.4,215.7 563.5,214.9 C574.5,214.2 585.6,213.1 596.6,212.3 C607.7,211.6 618.7,210.7 629.8,210.3 C640.8,210 651.8,209.9 662.9,210.1 C673.9,210.3 685,211 696,211.6 C707.1,212.2 718.1,213.1 729.2,213.6 C740.2,214.2 751.3,214.7 762.3,215 C773.4,215.3 784.4,215.3 795.5,215.4 C806.5,215.5 817.6,215.5 828.6,215.6 C839.7,215.7 850.7,215.9 861.8,216.1 C872.8,216.3 883.9,216.6 894.9,216.7 C906,216.7 922.5,216.4 928.1,216.3 L920,250 L-40,250 Z" fill="#223c85"/><g fill="#2c4895"><circle cx="657.8" cy="222.2" r="1.5"/><circle cx="530.8" cy="222.2" r="2.1"/><circle cx="450.5" cy="238.6" r="1.7"/><circle cx="441.1" cy="224.9" r="1.9"/><circle cx="348.9" cy="224.3" r="1"/><circle cx="271.5" cy="229.3" r="1.2"/><circle cx="704.9" cy="218.8" r="1.8"/><circle cx="868.8" cy="228.2" r="2.2"/><circle cx="828" cy="227.7" r="1"/><circle cx="138.1" cy="236.1" r="1"/><circle cx="90" cy="231.1" r="1.6"/><circle cx="693.7" cy="232.1" r="2.2"/><circle cx="111.6" cy="224.1" r="1.6"/><circle cx="469.7" cy="235.2" r="1.1"/><circle cx="226.4" cy="232.6" r="2.2"/><circle cx="818.5" cy="228" r="1.6"/><circle cx="97" cy="238.2" r="1.6"/><circle cx="767.5" cy="233.2" r="1"/><circle cx="878.5" cy="230.8" r="1.5"/><circle cx="817.3" cy="232.6" r="2.1"/><circle cx="304.7" cy="228.1" r="0.9"/><circle cx="785.9" cy="238" r="1"/><circle cx="858.5" cy="233.1" r="1.1"/><circle cx="624.4" cy="221.9" r="1"/><circle cx="276.7" cy="230.9" r="1.8"/><circle cx="193.1" cy="227.9" r="1.4"/><circle cx="301.1" cy="229.3" r="1.5"/><circle cx="549" cy="221.8" r="1.6"/></g><ellipse cx="292" cy="224" rx="28.5" ry="3.7" fill="#02081a" fill-opacity="0.12"/><ellipse cx="292" cy="224" rx="20.5" ry="2.7" fill="#02081a" fill-opacity="0.19"/><ellipse cx="292" cy="224" rx="12.8" ry="1.7" fill="#02081a" fill-opacity="0.28"/><ellipse cx="424" cy="224" rx="33.5" ry="4.4" fill="#02081a" fill-opacity="0.12"/><ellipse cx="424" cy="224" rx="24.1" ry="3.1" fill="#02081a" fill-opacity="0.19"/><ellipse cx="424" cy="224" rx="15.1" ry="2" fill="#02081a" fill-opacity="0.28"/><ellipse cx="600" cy="224" rx="37.2" ry="4.8" fill="#02081a" fill-opacity="0.12"/><ellipse cx="600" cy="224" rx="26.8" ry="3.5" fill="#02081a" fill-opacity="0.19"/><ellipse cx="600" cy="224" rx="16.7" ry="2.2" fill="#02081a" fill-opacity="0.28"/><ellipse cx="756" cy="224" rx="29.8" ry="3.9" fill="#02081a" fill-opacity="0.12"/><ellipse cx="756" cy="224" rx="21.4" ry="2.8" fill="#02081a" fill-opacity="0.19"/><ellipse cx="756" cy="224" rx="13.4" ry="1.7" fill="#02081a" fill-opacity="0.28"/><ellipse cx="150" cy="224" rx="36" ry="4.7" fill="#02081a" fill-opacity="0.07"/><ellipse cx="150" cy="224" rx="25.9" ry="3.4" fill="#02081a" fill-opacity="0.12"/><ellipse cx="150" cy="224" rx="16.2" ry="2.1" fill="#02081a" fill-opacity="0.17"/><path d="M269,226 C269.2,224.4 268.8,218.7 270.3,216.3 C271.7,213.9 275.1,212.8 277.8,211.4 C280.6,210 283.6,208.6 286.8,208.1 C290,207.6 294,207.9 297,208.6 C300.1,209.3 302.5,211 305.4,212.2 C308.2,213.5 312.5,213.9 314.1,216.2 C315.7,218.5 314.9,224.4 315,226 Z" fill="#2c458f"/><path d="M269,226 C269.2,224.6 268.8,219.8 270.1,217.7 C271.3,215.6 274.2,214.6 276.6,213.4 C279,212.3 281.6,211 284.3,210.6 C287.1,210.2 290.5,210.5 293.1,211.1 C295.8,211.6 297.8,213.1 300.3,214.2 C302.7,215.2 306.4,215.6 307.8,217.5 C309.2,219.5 308.4,224.6 308.6,226 Z" fill="#3a56a6"/><path d="M275.6,212.9 Q277.8,211.4 283.2,209.4" fill="none" stroke="#5673c4" stroke-width="2.4" stroke-linecap="round" transform="translate(2,4)"/><path d="M269,226 C269.2,224.4 268.8,218.7 270.3,216.3 C271.7,213.9 275.1,212.8 277.8,211.4 C280.6,210 283.6,208.6 286.8,208.1 C290,207.6 294,207.9 297,208.6 C300.1,209.3 302.5,211 305.4,212.2 C308.2,213.5 312.5,213.9 314.1,216.2 C315.7,218.5 314.9,224.4 315,226 Z" fill="none" stroke="#3a4a96" stroke-width="1.6" stroke-linejoin="round" stroke-linecap="round"/><path d="M397,226 C397.4,222 397.8,208.6 399.5,202.2 C401.1,195.8 403.8,191.6 406.9,187.5 C409.9,183.5 413.7,179.4 417.6,178 C421.5,176.6 426.3,177.6 430.3,179.1 C434.2,180.5 438.7,182.7 441.4,186.9 C444.2,191 445.2,197.4 446.8,203.9 C448.4,210.5 450.3,222.3 451,226 Z" fill="#2c458f"/><path d="M397,226 C397.4,222.6 397.7,211.1 399.1,205.5 C400.5,200 402.9,196.4 405.5,192.9 C408.1,189.5 411.4,186 414.7,184.7 C418.1,183.5 422.2,184.4 425.6,185.6 C429,186.9 432.9,188.8 435.2,192.3 C437.6,195.9 438.4,201.4 439.8,207 C441.2,212.6 442.8,222.8 443.4,226 Z" fill="#3a56a6"/><path d="M404.6,191.9 Q406.9,187.5 413.3,181.8" fill="none" stroke="#5673c4" stroke-width="2.4" stroke-linecap="round" transform="translate(2,4)"/><path d="M397,226 C397.4,222 397.8,208.6 399.5,202.2 C401.1,195.8 403.8,191.6 406.9,187.5 C409.9,183.5 413.7,179.4 417.6,178 C421.5,176.6 426.3,177.6 430.3,179.1 C434.2,180.5 438.7,182.7 441.4,186.9 C444.2,191 445.2,197.4 446.8,203.9 C448.4,210.5 450.3,222.3 451,226 Z" fill="none" stroke="#3a4a96" stroke-width="1.6" stroke-linejoin="round" stroke-linecap="round"/><path d="M570,226 C570.5,220.2 571,200.2 572.9,191.1 C574.9,181.9 578.2,176.3 581.6,171.1 C585,165.8 589.1,162.1 593.3,159.5 C597.6,157 602.8,153.8 607.1,155.6 C611.3,157.4 615.6,164 618.7,170.2 C621.8,176.3 623.9,183.4 625.8,192.7 C627.7,202 629.3,220.4 630,226 Z" fill="#2c458f"/><path d="M570,226 C570.4,221 570.9,203.9 572.5,196 C574.2,188.1 577.1,183.3 580,178.8 C582.9,174.2 586.4,171.1 590.1,168.8 C593.7,166.6 598.2,163.9 601.9,165.5 C605.5,167 609.2,172.7 611.9,178 C614.6,183.3 616.4,189.3 618,197.3 C619.6,205.3 621,221.2 621.6,226 Z" fill="#3a56a6"/><path d="M579,177.1 Q581.6,171.1 588.6,164.2" fill="none" stroke="#5673c4" stroke-width="2.4" stroke-linecap="round" transform="translate(2,4)"/><path d="M570,226 C570.5,220.2 571,200.2 572.9,191.1 C574.9,181.9 578.2,176.3 581.6,171.1 C585,165.8 589.1,162.1 593.3,159.5 C597.6,157 602.8,153.8 607.1,155.6 C611.3,157.4 615.6,164 618.7,170.2 C621.8,176.3 623.9,183.4 625.8,192.7 C627.7,202 629.3,220.4 630,226 Z" fill="none" stroke="#3a4a96" stroke-width="1.6" stroke-linejoin="round" stroke-linecap="round"/><path d="M732,226 C732.3,223.7 732.2,215.8 733.8,212.3 C735.4,208.9 738.6,207.1 741.5,205.3 C744.3,203.4 747.5,202.4 750.8,201.3 C754.2,200.3 758.1,198.7 761.6,199.1 C765.2,199.4 769,201.2 771.9,203.4 C774.8,205.5 777.6,208.1 779,211.8 C780.3,215.6 779.8,223.6 780,226 Z" fill="#2c458f"/><path d="M732,226 C732.3,224 732.2,217.2 733.6,214.2 C734.9,211.3 737.7,209.7 740.1,208.2 C742.6,206.6 745.3,205.7 748.2,204.8 C751.1,203.9 754.5,202.5 757.5,202.8 C760.5,203.1 763.8,204.7 766.3,206.5 C768.8,208.4 771.2,210.6 772.4,213.8 C773.5,217.1 773.1,224 773.3,226 Z" fill="#3a56a6"/><path d="M739.2,207.4 Q741.5,205.3 747.1,202.9" fill="none" stroke="#5673c4" stroke-width="2.4" stroke-linecap="round" transform="translate(2,4)"/><path d="M732,226 C732.3,223.7 732.2,215.8 733.8,212.3 C735.4,208.9 738.6,207.1 741.5,205.3 C744.3,203.4 747.5,202.4 750.8,201.3 C754.2,200.3 758.1,198.7 761.6,199.1 C765.2,199.4 769,201.2 771.9,203.4 C774.8,205.5 777.6,208.1 779,211.8 C780.3,215.6 779.8,223.6 780,226 Z" fill="none" stroke="#3a4a96" stroke-width="1.6" stroke-linejoin="round" stroke-linecap="round"/><path d="M512,226 C512.3,225.1 512.5,222.2 513.6,220.8 C514.7,219.4 516.5,218.4 518.6,217.6 C520.6,216.9 523.4,216.5 526,216.2 C528.6,215.8 531.8,215.2 534.3,215.6 C536.7,215.9 538.6,217.4 540.5,218.3 C542.4,219.2 544.2,219.8 545.5,221.1 C546.7,222.4 547.6,225.2 548,226 Z" fill="#2c458f"/><path d="M512,226 C512.2,225.3 512.5,222.8 513.4,221.6 C514.4,220.4 515.9,219.5 517.7,218.8 C519.4,218.1 521.8,217.9 524,217.6 C526.3,217.3 529.1,216.7 531.1,217 C533.2,217.4 534.9,218.6 536.5,219.4 C538.1,220.2 539.7,220.7 540.8,221.8 C541.9,222.9 542.6,225.3 543,226 Z" fill="#3a56a6"/><path d="M517.1,218.6 Q518.6,217.6 523,216.8" fill="none" stroke="#5673c4" stroke-width="2.4" stroke-linecap="round" transform="translate(2,4)"/><path d="M512,226 C512.3,225.1 512.5,222.2 513.6,220.8 C514.7,219.4 516.5,218.4 518.6,217.6 C520.6,216.9 523.4,216.5 526,216.2 C528.6,215.8 531.8,215.2 534.3,215.6 C536.7,215.9 538.6,217.4 540.5,218.3 C542.4,219.2 544.2,219.8 545.5,221.1 C546.7,222.4 547.6,225.2 548,226 Z" fill="none" stroke="#3a4a96" stroke-width="1.6" stroke-linejoin="round" stroke-linecap="round"/><path d="M477,210 Q503.5,219 530,214" fill="none" stroke="#93a3c4" stroke-width="2.4" stroke-dasharray="2 5" stroke-linecap="round" stroke-opacity=".9"/><path d="M424,178 Q450.5,201 477,210" fill="none" stroke="#6fa3ff" stroke-width="8" stroke-opacity=".35" stroke-linecap="round"/><path d="M424,178 Q450.5,201 477,210" fill="none" stroke="#6fa3ff" stroke-width="2.6" stroke-linecap="round"/><circle cx="438.8" cy="189.8" r="2.8" fill="#ffe9a6" stroke="#3a4a96" stroke-width="0.8" stroke-linejoin="round" stroke-linecap="round"/><circle cx="455.8" cy="200.6" r="2.8" fill="#ffe9a6" stroke="#3a4a96" stroke-width="0.8" stroke-linejoin="round" stroke-linecap="round"/><circle cx="466.4" cy="205.8" r="2.8" fill="#ffe9a6" stroke="#3a4a96" stroke-width="0.8" stroke-linejoin="round" stroke-linecap="round"/><circle cx="473.8" cy="208.9" r="2.8" fill="#ffe9a6" stroke="#3a4a96" stroke-width="0.8" stroke-linejoin="round" stroke-linecap="round"/><path d="M26,212 Q159,226 292,206" fill="none" stroke="#6fa3ff" stroke-width="8" stroke-opacity=".35" stroke-linecap="round"/><path d="M26,212 Q159,226 292,206" fill="none" stroke="#6fa3ff" stroke-width="2.6" stroke-linecap="round"/><circle cx="64" cy="215.3" r="2.8" fill="#ffe9a6" stroke="#3a4a96" stroke-width="0.8" stroke-linejoin="round" stroke-linecap="round"/><circle cx="102" cy="217.2" r="2.8" fill="#ffe9a6" stroke="#3a4a96" stroke-width="0.8" stroke-linejoin="round" stroke-linecap="round"/><circle cx="140" cy="217.8" r="2.8" fill="#ffe9a6" stroke="#3a4a96" stroke-width="0.8" stroke-linejoin="round" stroke-linecap="round"/><circle cx="178" cy="216.9" r="2.8" fill="#ffe9a6" stroke="#3a4a96" stroke-width="0.8" stroke-linejoin="round" stroke-linecap="round"/><circle cx="216" cy="214.7" r="2.8" fill="#ffe9a6" stroke="#3a4a96" stroke-width="0.8" stroke-linejoin="round" stroke-linecap="round"/><circle cx="254" cy="211" r="2.8" fill="#ffe9a6" stroke="#3a4a96" stroke-width="0.8" stroke-linejoin="round" stroke-linecap="round"/><path d="M292,206 Q358,220 424,178" fill="none" stroke="#6fa3ff" stroke-width="8" stroke-opacity=".35" stroke-linecap="round"/><path d="M292,206 Q358,220 424,178" fill="none" stroke="#6fa3ff" stroke-width="2.6" stroke-linecap="round"/><circle cx="336" cy="209.1" r="2.8" fill="#ffe9a6" stroke="#3a4a96" stroke-width="0.8" stroke-linejoin="round" stroke-linecap="round"/><circle cx="380" cy="199.8" r="2.8" fill="#ffe9a6" stroke="#3a4a96" stroke-width="0.8" stroke-linejoin="round" stroke-linecap="round"/><path d="M424,178 Q512,152 600,156" fill="none" stroke="#6fa3ff" stroke-width="8" stroke-opacity=".35" stroke-linecap="round"/><path d="M424,178 Q512,152 600,156" fill="none" stroke="#6fa3ff" stroke-width="2.6" stroke-linecap="round"/><circle cx="459.2" cy="168.8" r="2.8" fill="#ffe9a6" stroke="#3a4a96" stroke-width="0.8" stroke-linejoin="round" stroke-linecap="round"/><circle cx="494.4" cy="162" r="2.8" fill="#ffe9a6" stroke="#3a4a96" stroke-width="0.8" stroke-linejoin="round" stroke-linecap="round"/><circle cx="529.6" cy="157.6" r="2.8" fill="#ffe9a6" stroke="#3a4a96" stroke-width="0.8" stroke-linejoin="round" stroke-linecap="round"/><circle cx="564.8" cy="155.6" r="2.8" fill="#ffe9a6" stroke="#3a4a96" stroke-width="0.8" stroke-linejoin="round" stroke-linecap="round"/><path d="M600,156 Q678,212 756,198" fill="none" stroke="#6fa3ff" stroke-width="8" stroke-opacity=".35" stroke-linecap="round"/><path d="M600,156 Q678,212 756,198" fill="none" stroke="#6fa3ff" stroke-width="2.6" stroke-linecap="round"/><circle cx="639" cy="179.6" r="2.8" fill="#ffe9a6" stroke="#3a4a96" stroke-width="0.8" stroke-linejoin="round" stroke-linecap="round"/><circle cx="678" cy="194.5" r="2.8" fill="#ffe9a6" stroke="#3a4a96" stroke-width="0.8" stroke-linejoin="round" stroke-linecap="round"/><circle cx="717" cy="200.6" r="2.8" fill="#ffe9a6" stroke="#3a4a96" stroke-width="0.8" stroke-linejoin="round" stroke-linecap="round"/><ellipse cx="483.4" cy="224" rx="28" ry="3.6" fill="#02081a" fill-opacity="0.1"/><ellipse cx="483.4" cy="224" rx="20.2" ry="2.6" fill="#02081a" fill-opacity="0.15"/><ellipse cx="483.4" cy="224" rx="12.6" ry="1.6" fill="#02081a" fill-opacity="0.22"/><path d="M453.4,225 C454.1,222.4 455.8,213.7 457.7,209.4 C459.7,205.1 461.9,202 465.1,199.2 C468.2,196.5 472.4,194 476.5,192.9 C480.7,191.9 485.9,192.1 490.2,193 C494.4,194 498.9,196 502,198.8 C505.1,201.5 507,205.1 508.9,209.5 C510.8,213.8 512.6,222.4 513.4,225 Z" fill="#304691"/><path d="M453.4,225 C454,222.7 455.5,215.3 457.1,211.6 C458.8,207.9 460.7,205.2 463.4,202.8 C466.1,200.5 469.7,198.3 473.3,197.4 C476.9,196.5 481.4,196.7 485,197.5 C488.7,198.3 492.5,200.1 495.2,202.4 C497.9,204.8 499.5,207.9 501.1,211.6 C502.7,215.4 504.3,222.7 505,225 Z" fill="#2c458f"/><path d="M462.9,202.3 Q465.1,199.2 471.9,195.4" fill="none" stroke="#3a56a6" stroke-width="2.4" stroke-linecap="round" transform="translate(2,4)"/><path d="M453.4,225 C454.1,222.4 455.8,213.7 457.7,209.4 C459.7,205.1 461.9,202 465.1,199.2 C468.2,196.5 472.4,194 476.5,192.9 C480.7,191.9 485.9,192.1 490.2,193 C494.4,194 498.9,196 502,198.8 C505.1,201.5 507,205.1 508.9,209.5 C510.8,213.8 512.6,222.4 513.4,225 Z" fill="none" stroke="#3a4a96" stroke-width="1.6" stroke-linejoin="round" stroke-linecap="round"/><circle cx="448.4" cy="222" r="3.6" fill="#304691" stroke="#3a4a96" stroke-width="0.96" stroke-linejoin="round" stroke-linecap="round"/><circle cx="517.4" cy="223" r="3" fill="#304691" stroke="#3a4a96" stroke-width="0.96" stroke-linejoin="round" stroke-linecap="round"/><circle cx="525.4" cy="221" r="2" fill="#304691" stroke="#3a4a96" stroke-width="0.96" stroke-linejoin="round" stroke-linecap="round"/><path d="M489.4,195 L491.4,203" stroke="#6276b4" stroke-width="2.6" stroke-linecap="round"/><circle cx="489.4" cy="185" r="11" fill="#c2412f" stroke="#3a4a96" stroke-width="1.28" stroke-linejoin="round" stroke-linecap="round"/><rect x="482.9" y="183" width="13" height="4" rx="1.5" fill="#ffffff"/><path d="M280,209 L269,200.1 Q268.2,195.5 272.6,194.1 Q273.7,189.6 278.3,190.1 Q281,186.4 285,188.7 Q289,186.4 291.7,190.1 Q296.3,189.6 297.4,194.1 Q301.8,195.5 301,200.1 L290,209 Z" fill="#f3f7ff"/><path d="M285,206 L274.4,195.7 M285,206 L279.2,192.3 M285,206 L285,191 M285,206 L290.8,192.3 M285,206 L295.6,195.7" stroke="#bfc7e2" stroke-width="1.5" stroke-linecap="round" stroke-opacity="0.8"/><path d="M277,209 L279,203 L291,203 L293,209 Z" fill="#bfc7e2"/><path d="M280,209 L269,200.1 Q268.2,195.5 272.6,194.1 Q273.7,189.6 278.3,190.1 Q281,186.4 285,188.7 Q289,186.4 291.7,190.1 Q296.3,189.6 297.4,194.1 Q301.8,195.5 301,200.1 L290,209 Z" fill="none" stroke="#3a4a96" stroke-width="1.6" stroke-linejoin="round" stroke-linecap="round"/><g transform="translate(298,196) rotate(4)"><path d="M-9,-11.5 L3,-11.5 L9,-5.5 L9,11.5 L-9,11.5 Z" fill="#f3f7ff" stroke="#3a4a96" stroke-width="1.6" stroke-linejoin="round" stroke-linecap="round"/><path d="M3,-11.5 L3,-5.5 L9,-5.5 Z" fill="#cfdcf3" stroke="#3a4a96" stroke-width="1.12" stroke-linejoin="round" stroke-linecap="round"/><path d="M-5,-7.5 L-0.9,-7.5" stroke="#2152c4" stroke-width="2.4" stroke-linecap="round"/><path d="M-5,-1.5 L5,-1.5 M-5,3.5 L1,3.5" stroke="#7f9fdc" stroke-width="1.8" stroke-linecap="round"/></g><circle cx="292" cy="206" r="4.2" fill="#ffe9a6" stroke="#3a4a96" stroke-width="1.12" stroke-linejoin="round" stroke-linecap="round"/><path d="M412,181 L401,172.1 Q400.2,167.5 404.6,166.1 Q405.7,161.6 410.3,162.1 Q413,158.4 417,160.7 Q421,158.4 423.7,162.1 Q428.3,161.6 429.4,166.1 Q433.8,167.5 433,172.1 L422,181 Z" fill="#ffccc2"/><path d="M417,178 L406.4,167.7 M417,178 L411.2,164.3 M417,178 L417,163 M417,178 L422.8,164.3 M417,178 L427.6,167.7" stroke="#c8a8b6" stroke-width="1.5" stroke-linecap="round" stroke-opacity="0.8"/><path d="M409,181 L411,175 L423,175 L425,181 Z" fill="#c8a8b6"/><path d="M412,181 L401,172.1 Q400.2,167.5 404.6,166.1 Q405.7,161.6 410.3,162.1 Q413,158.4 417,160.7 Q421,158.4 423.7,162.1 Q428.3,161.6 429.4,166.1 Q433.8,167.5 433,172.1 L422,181 Z" fill="none" stroke="#3a4a96" stroke-width="1.6" stroke-linejoin="round" stroke-linecap="round"/><g transform="translate(430,168) rotate(1)"><path d="M-9,-11.5 L3,-11.5 L9,-5.5 L9,11.5 L-9,11.5 Z" fill="#f3f7ff" stroke="#3a4a96" stroke-width="1.6" stroke-linejoin="round" stroke-linecap="round"/><path d="M3,-11.5 L3,-5.5 L9,-5.5 Z" fill="#cfdcf3" stroke="#3a4a96" stroke-width="1.12" stroke-linejoin="round" stroke-linecap="round"/><path d="M-5,-7.5 L-0.9,-7.5" stroke="#15784b" stroke-width="2.4" stroke-linecap="round"/><path d="M-5,-1.5 L5,-1.5 M-5,3.5 L1,3.5" stroke="#7f9fdc" stroke-width="1.8" stroke-linecap="round"/></g><circle cx="424" cy="178" r="4.2" fill="#ffe9a6" stroke="#3a4a96" stroke-width="1.12" stroke-linejoin="round" stroke-linecap="round"/><path d="M588,159 L577,150.1 Q576.2,145.5 580.6,144.1 Q581.7,139.6 586.3,140.1 Q589,136.4 593,138.7 Q597,136.4 599.7,140.1 Q604.3,139.6 605.4,144.1 Q609.8,145.5 609,150.1 L598,159 Z" fill="#f3f7ff"/><path d="M593,156 L582.4,145.7 M593,156 L587.2,142.3 M593,156 L593,141 M593,156 L598.8,142.3 M593,156 L603.6,145.7" stroke="#bfc7e2" stroke-width="1.5" stroke-linecap="round" stroke-opacity="0.8"/><path d="M585,159 L587,153 L599,153 L601,159 Z" fill="#bfc7e2"/><path d="M588,159 L577,150.1 Q576.2,145.5 580.6,144.1 Q581.7,139.6 586.3,140.1 Q589,136.4 593,138.7 Q597,136.4 599.7,140.1 Q604.3,139.6 605.4,144.1 Q609.8,145.5 609,150.1 L598,159 Z" fill="none" stroke="#3a4a96" stroke-width="1.6" stroke-linejoin="round" stroke-linecap="round"/><g transform="translate(606,146) rotate(-2)"><path d="M-9,-11.5 L3,-11.5 L9,-5.5 L9,11.5 L-9,11.5 Z" fill="#f3f7ff" stroke="#3a4a96" stroke-width="1.6" stroke-linejoin="round" stroke-linecap="round"/><path d="M3,-11.5 L3,-5.5 L9,-5.5 Z" fill="#cfdcf3" stroke="#3a4a96" stroke-width="1.12" stroke-linejoin="round" stroke-linecap="round"/><path d="M-5,-7.5 L-0.9,-7.5" stroke="#6a45cf" stroke-width="2.4" stroke-linecap="round"/><path d="M-5,-1.5 L5,-1.5 M-5,3.5 L1,3.5" stroke="#7f9fdc" stroke-width="1.8" stroke-linecap="round"/></g><circle cx="600" cy="156" r="4.2" fill="#ffe9a6" stroke="#3a4a96" stroke-width="1.12" stroke-linejoin="round" stroke-linecap="round"/><path d="M744,201 L733,192.1 Q732.2,187.5 736.6,186.1 Q737.7,181.6 742.3,182.1 Q745,178.4 749,180.7 Q753,178.4 755.7,182.1 Q760.3,181.6 761.4,186.1 Q765.8,187.5 765,192.1 L754,201 Z" fill="#ffe5a2"/><path d="M749,198 L738.4,187.7 M749,198 L743.2,184.3 M749,198 L749,183 M749,198 L754.8,184.3 M749,198 L759.6,187.7" stroke="#c8ba9f" stroke-width="1.5" stroke-linecap="round" stroke-opacity="0.8"/><path d="M741,201 L743,195 L755,195 L757,201 Z" fill="#c8ba9f"/><path d="M744,201 L733,192.1 Q732.2,187.5 736.6,186.1 Q737.7,181.6 742.3,182.1 Q745,178.4 749,180.7 Q753,178.4 755.7,182.1 Q760.3,181.6 761.4,186.1 Q765.8,187.5 765,192.1 L754,201 Z" fill="none" stroke="#3a4a96" stroke-width="1.6" stroke-linejoin="round" stroke-linecap="round"/><g transform="translate(762,188) rotate(-5)"><path d="M-9,-11.5 L3,-11.5 L9,-5.5 L9,11.5 L-9,11.5 Z" fill="#f3f7ff" stroke="#3a4a96" stroke-width="1.6" stroke-linejoin="round" stroke-linecap="round"/><path d="M3,-11.5 L3,-5.5 L9,-5.5 Z" fill="#cfdcf3" stroke="#3a4a96" stroke-width="1.12" stroke-linejoin="round" stroke-linecap="round"/><path d="M-5,-7.5 L-0.9,-7.5" stroke="#2152c4" stroke-width="2.4" stroke-linecap="round"/><path d="M-5,-1.5 L5,-1.5 M-5,3.5 L1,3.5" stroke="#7f9fdc" stroke-width="1.8" stroke-linecap="round"/></g><circle cx="756" cy="198" r="4.2" fill="#ffe9a6" stroke="#3a4a96" stroke-width="1.12" stroke-linejoin="round" stroke-linecap="round"/><g transform="translate(534,205) rotate(-8)" opacity="0.6"><path d="M-9,-11 L3,-11 L9,-5 L9,11 L-9,11 Z" fill="#f3f7ff" stroke="#3a4a96" stroke-width="1.6" stroke-linejoin="round" stroke-linecap="round"/><path d="M3,-11 L3,-5 L9,-5 Z" fill="#cfdcf3" stroke="#3a4a96" stroke-width="1.12" stroke-linejoin="round" stroke-linecap="round"/><path d="M-5,-1 L5,-1 M-5,4 L1,4" stroke="#7f9fdc" stroke-width="1.8" stroke-linecap="round"/></g><circle cx="176" cy="146" r="34" fill="url(#30-topics-crawling-lamp)"/><g transform="translate(150,154) scale(0.2978,0.2978) translate(-41.4,-2.1)"><defs><linearGradient id="30-topics-crawling-bot1-glass" x1="0" y1="0" x2="0" y2="1"><stop offset="0" stop-color="#f2f8ff"/><stop offset="1" stop-color="#bcd6f8"/></linearGradient><linearGradient id="30-topics-crawling-bot1-deep" x1="0" y1="0" x2="0" y2="1"><stop offset=".15" stop-color="#0b1b3d"/><stop offset="1" stop-color="#2152c4"/></linearGradient><radialGradient id="30-topics-crawling-bot1-glow"><stop offset="0" stop-color="#ffd055" stop-opacity=".8"/><stop offset=".45" stop-color="#ffd055" stop-opacity=".3"/><stop offset="1" stop-color="#ffd055" stop-opacity="0"/></radialGradient><radialGradient id="30-topics-crawling-bot1-eyeglow"><stop offset="0" stop-color="#9cc0ff" stop-opacity=".7"/><stop offset="1" stop-color="#9cc0ff" stop-opacity="0"/></radialGradient><clipPath id="30-topics-crawling-bot1-peek"><rect x="-200" y="-300" width="400" height="300"/></clipPath></defs><g transform="rotate(112 0 30)"><g transform="translate(-19,64) scale(-1,1) rotate(-16)"><rect x="-8" y="-4" width="16" height="28" rx="7" fill="#f3f7ff" stroke="#3a4a96" stroke-width="3.69" stroke-linejoin="round" stroke-linecap="round"/><path d="M2,-2 C6,-1 8,1 8,4 L8,20 C8,22 6,23 4,23 Z" fill="#c9d7f1"/><g transform="translate(0,0)"><path d="M-9,18 L9,18 C13,30 17,42 18,52 C18,58 13,60 8,57 C4,61 -4,61 -8,57 C-13,60 -18,58 -18,52 C-17,42 -13,30 -9,18 Z" fill="#ff7a4a" stroke="#3a4a96" stroke-width="3.69" stroke-linejoin="round" stroke-linecap="round"/><path d="M-4,26 L-7,52 M4,26 L7,52" fill="none" stroke="#ffa27a" stroke-width="2.6" stroke-linecap="round"/></g></g><g transform="translate(19,64) scale(1,1) rotate(-24)"><rect x="-8" y="-4" width="16" height="19" rx="7" fill="#f3f7ff" stroke="#3a4a96" stroke-width="3.69" stroke-linejoin="round" stroke-linecap="round"/><path d="M2,-2 C6,-1 8,1 8,4 L8,11 C8,13 6,14 4,14 Z" fill="#c9d7f1"/><g transform="translate(0,-9)"><path d="M-9,18 L9,18 C13,30 17,42 18,52 C18,58 13,60 8,57 C4,61 -4,61 -8,57 C-13,60 -18,58 -18,52 C-17,42 -13,30 -9,18 Z" fill="#ff7a4a" stroke="#3a4a96" stroke-width="3.69" stroke-linejoin="round" stroke-linecap="round"/><path d="M-4,26 L-7,52 M4,26 L7,52" fill="none" stroke="#ffa27a" stroke-width="2.6" stroke-linecap="round"/></g></g><rect x="-13" y="-12" width="26" height="14" rx="5" fill="#aebfe0" stroke="#3a4a96" stroke-width="3.69" stroke-linejoin="round" stroke-linecap="round"/><path d="M-29,-3 L29,-3 C37,-3 41,3 42,11 L45,51 C46,61 39,68 29,68 L-29,68 C-39,68 -46,61 -45,51 L-42,11 C-41,3 -37,-3 -29,-3 Z" fill="#f3f7ff" stroke="#3a4a96" stroke-width="3.69" stroke-linejoin="round" stroke-linecap="round"/><path d="M22,-3 L29,-3 C37,-3 41,3 42,11 L45,51 C46,61 39,68 29,68 L23,68 C32,65 37,58 36,48 L34,12 C33,4 29,-1 22,-3 Z" fill="#c9d7f1"/><path d="M-29,-3 L29,-3 C37,-3 41,3 42,11 L45,51 C46,61 39,68 29,68 L-29,68 C-39,68 -46,61 -45,51 L-42,11 C-41,3 -37,-3 -29,-3 Z" fill="none" stroke="#3a4a96" stroke-width="3.69" stroke-linejoin="round" stroke-linecap="round"/><rect x="-21" y="9" width="42" height="33" rx="9" fill="#3a8ee6" stroke="#3a4a96" stroke-width="3.69" stroke-linejoin="round" stroke-linecap="round"/><path d="M-13,28 q4.3,-6 8.6,0 t8.6,0 t8.6,0" fill="none" stroke="#cfe2ff" stroke-width="3" stroke-linecap="round"/><circle cx="11" cy="17.5" r="3" fill="none" stroke="#cfe2ff" stroke-width="2"/><circle cx="5.5" cy="15" r="1.7" fill="#cfe2ff"/><path d="M-45.4,50 L45.4,50 L45.6,58 C45.8,60 45.8,61 45.6,62 L-45.6,62 C-45.8,61 -45.8,60 -45.6,58 Z" fill="#6a75d6" stroke="#3a4a96" stroke-width="3.69" stroke-linejoin="round" stroke-linecap="round"/><rect x="-6" y="48.5" width="12" height="15" rx="3" fill="#ffd055" stroke="#3a4a96" stroke-width="3.69" stroke-linejoin="round" stroke-linecap="round"/><g transform="translate(-6,34) rotate(96)"><rect x="-19" y="-15" width="42" height="31" rx="3.5" fill="#ffffff" stroke="#3a4a96" stroke-width="3.69" stroke-linejoin="round" stroke-linecap="round"/><path d="M21,-10 L21,11 M17.5,-11 L17.5,12" stroke="#9fbbec" stroke-width="1.6"/><rect x="-22" y="-17" width="38" height="33" rx="4" fill="#ffd055" stroke="#3a4a96" stroke-width="3.69" stroke-linejoin="round" stroke-linecap="round"/><rect x="-22" y="-17" width="8" height="33" rx="3.5" fill="#eab23a" stroke="#3a4a96" stroke-width="3.69" stroke-linejoin="round" stroke-linecap="round"/><g transform="translate(2.5,-0.5) scale(-0.17,0.17)" fill="#ff7a5e"><path d="M33,0 C43,-7 52,-15 62,-21 C57.5,-7 57.5,7 62,21 C52,15 43,7 33,0 Z"/><path d="M-50,0 C-37,-29 19,-29 40,0 C19,29 -37,29 -50,0 Z"/><circle cx="-31" cy="-5" r="6.5" fill="#ffffff"/></g></g><g transform="translate(-40,10) scale(-1,1) rotate(38)"><rect x="-7.5" y="-6" width="15" height="36" rx="7.5" fill="#f3f7ff" stroke="#3a4a96" stroke-width="3.69" stroke-linejoin="round" stroke-linecap="round"/><path d="M1.5,-4 C5,-3 7.5,-1 7.5,2 L7.5,26 C7.5,28 6,29.5 4,29.5 Z" fill="#c9d7f1"/><rect x="-9" y="22" width="18" height="8" rx="3.5" fill="#6a75d6" stroke="#3a4a96" stroke-width="3.69" stroke-linejoin="round" stroke-linecap="round"/><ellipse cx="-9" cy="35" rx="5" ry="7" transform="rotate(-28 -9 35)" fill="#4f9df2" stroke="#3a4a96" stroke-width="3.69" stroke-linejoin="round" stroke-linecap="round"/><path d="M-10,33 C-10,44 -5,48 1,48 C8,48 11,43 11,36 C11,30 7,28 0,28 C-6,28 -10,29 -10,33 Z" fill="#4f9df2" stroke="#3a4a96" stroke-width="3.69" stroke-linejoin="round" stroke-linecap="round"/><path d="M5,31 C9,33 10,37 9,41" fill="none" stroke="#3b84dc" stroke-width="2.6" stroke-linecap="round"/></g><g transform="translate(40,10) scale(1,1) rotate(-196)"><rect x="-7.5" y="-6" width="15" height="36" rx="7.5" fill="#f3f7ff" stroke="#3a4a96" stroke-width="3.69" stroke-linejoin="round" stroke-linecap="round"/><path d="M1.5,-4 C5,-3 7.5,-1 7.5,2 L7.5,26 C7.5,28 6,29.5 4,29.5 Z" fill="#c9d7f1"/><rect x="-9" y="22" width="18" height="8" rx="3.5" fill="#6a75d6" stroke="#3a4a96" stroke-width="3.69" stroke-linejoin="round" stroke-linecap="round"/><ellipse cx="-9" cy="35" rx="5" ry="7" transform="rotate(-28 -9 35)" fill="#4f9df2" stroke="#3a4a96" stroke-width="3.69" stroke-linejoin="round" stroke-linecap="round"/><path d="M-10,33 C-10,44 -5,48 1,48 C8,48 11,43 11,36 C11,30 7,28 0,28 C-6,28 -10,29 -10,33 Z" fill="#4f9df2" stroke="#3a4a96" stroke-width="3.69" stroke-linejoin="round" stroke-linecap="round"/><path d="M5,31 C9,33 10,37 9,41" fill="none" stroke="#3b84dc" stroke-width="2.6" stroke-linecap="round"/></g><g transform="rotate(-58 0 -8) scale(-1,1)"><path d="M0,-95 L0,-111" fill="none" stroke="#3a4a96" stroke-width="11.19" stroke-linecap="round"/><path d="M0,-95 L0,-111" fill="none" stroke="#8fb8ff" stroke-width="3.8" stroke-linecap="round"/><circle cx="0" cy="-118" r="20" fill="url(#30-topics-crawling-bot1-glow)"/><circle cx="0" cy="-118" r="8.2" fill="#ffd055" stroke="#3a4a96" stroke-width="3.69" stroke-linejoin="round" stroke-linecap="round"/><circle cx="-2.6" cy="-120.6" r="2.5" fill="#fff3c4"/><path d="M-47,-44 C-47,-78 -26,-97 0,-97 C26,-97 47,-78 47,-44 L47,-28 C47,-15 39,-8 26,-8 L-26,-8 C-39,-8 -47,-15 -47,-28 Z" fill="#f3f7ff" stroke="#3a4a96" stroke-width="3.69" stroke-linejoin="round" stroke-linecap="round"/><path d="M18,-94 C37,-87 47,-68 47,-44 L47,-28 C47,-15 39,-8 26,-8 L18,-8 C31,-10 39,-18 39,-30 L39,-46 C39,-68 32,-84 18,-94 Z" fill="#c9d7f1"/><ellipse cx="-22" cy="-82" rx="11" ry="5.5" transform="rotate(-28 -22 -82)" fill="#ffffff"/><path d="M-47,-44 C-47,-78 -26,-97 0,-97 C26,-97 47,-78 47,-44 L47,-28 C47,-15 39,-8 26,-8 L-26,-8 C-39,-8 -47,-15 -47,-28 Z" fill="none" stroke="#3a4a96" stroke-width="3.69" stroke-linejoin="round" stroke-linecap="round"/><path d="M-46.4,-58 Q0,-51 46.4,-58 L47,-43 Q0,-36 -47,-43 Z" fill="#6a75d6" stroke="#3a4a96" stroke-width="3.69" stroke-linejoin="round" stroke-linecap="round"/><circle cx="-48" cy="-50" r="9" fill="#6a75d6" stroke="#3a4a96" stroke-width="3.69" stroke-linejoin="round" stroke-linecap="round"/><circle cx="-48" cy="-50" r="3.4" fill="#cfe2ff"/><ellipse cx="0" cy="-49" rx="40" ry="25" fill="#3a4a96" stroke="#3a4a96" stroke-width="7.39" stroke-linejoin="round"/><ellipse cx="0" cy="-29" rx="15.5" ry="12.5" fill="#3a4a96" stroke="#3a4a96" stroke-width="7.39" stroke-linejoin="round"/><ellipse cx="0" cy="-49" rx="40" ry="25" fill="#4f8ff0"/><ellipse cx="0" cy="-29" rx="15.5" ry="12.5" fill="#4f8ff0"/><path d="M-31,-67 C-18,-75 18,-75 31,-67" fill="none" stroke="#8fb8ff" stroke-width="3.2" stroke-linecap="round"/><circle cx="-35.5" cy="-49" r="2.3" fill="#cfe2ff"/><circle cx="35.5" cy="-49" r="2.3" fill="#cfe2ff"/><path d="M-32.5,-49 C-32.5,-61 -18,-67.5 0,-67.5 C18,-67.5 32.5,-61 32.5,-49 C32.5,-39 24,-33.5 13,-32.5 C11,-25 6,-21.5 0,-21.5 C-6,-21.5 -11,-25 -13,-32.5 C-24,-33.5 -32.5,-39 -32.5,-49 Z" fill="url(#30-topics-crawling-bot1-deep)" stroke="#3a4a96" stroke-width="2.59" stroke-linejoin="round"/><circle cx="-16" cy="-51" r="13" fill="url(#30-topics-crawling-bot1-eyeglow)"/><circle cx="10" cy="-51" r="13" fill="url(#30-topics-crawling-bot1-eyeglow)"/><ellipse cx="-16" cy="-51" rx="5.4" ry="7" fill="#ffffff"/><ellipse cx="10" cy="-51" rx="5.4" ry="7" fill="#ffffff"/><ellipse cx="-25.5" cy="-39.5" rx="5" ry="3" fill="#f26b4f" fill-opacity=".6"/><ellipse cx="22.5" cy="-39.5" rx="5" ry="3" fill="#f26b4f" fill-opacity=".6"/><path d="M-8.5,-35.5 Q-1.5,-29 5.5,-35.5" fill="none" stroke="#ffffff" stroke-width="3" stroke-linecap="round"/><path d="M-25,-57 C-22,-62 -15,-65 -8,-65.5" fill="none" stroke="#ffffff" stroke-opacity=".35" stroke-width="3.6" stroke-linecap="round"/><path d="M27,-21 C44,-17 58,-25 58,-42 L58,-96 C58,-104 54,-108 47,-109" fill="none" stroke="#3a4a96" stroke-width="16.89" stroke-linecap="round"/><path d="M27,-21 C44,-17 58,-25 58,-42 L58,-96 C58,-104 54,-108 47,-109" fill="none" stroke="#ff7a4a" stroke-width="9.5" stroke-linecap="round"/><path d="M53.4,-76 L62.6,-76 M53.4,-87 L62.6,-87" stroke="#ffffff" stroke-width="3" stroke-linecap="round"/><rect x="17" y="-27" width="13" height="10" rx="4" transform="rotate(14 23.5 -22)" fill="#6a75d6" stroke="#3a4a96" stroke-width="3.69" stroke-linejoin="round" stroke-linecap="round"/><rect x="45" y="-56" width="20" height="11" rx="4" fill="#6a75d6" stroke="#3a4a96" stroke-width="3.69" stroke-linejoin="round" stroke-linecap="round"/></g></g><circle cx="87.1" cy="-67.7" r="4.6" fill="#cfe0ff" fill-opacity="0.18" stroke="#9cc0ff" stroke-width="0.6"/><path d="M88,-70.5 A2.9,2.9 0 0 1 89.9,-68.7" fill="none" stroke="#ffffff" stroke-width="0.92" stroke-linecap="round"/><circle cx="96.1" cy="-84.7" r="6.4" fill="#cfe0ff" fill-opacity="0.18" stroke="#9cc0ff" stroke-width="0.77"/><path d="M97.4,-88.6 A4.1,4.1 0 0 1 100,-86.1" fill="none" stroke="#ffffff" stroke-width="1.28" stroke-linecap="round"/><circle cx="88.1" cy="-103.7" r="3.8" fill="#cfe0ff" fill-opacity="0.18" stroke="#9cc0ff" stroke-width="0.6"/><path d="M88.9,-106.1 A2.4,2.4 0 0 1 90.4,-104.6" fill="none" stroke="#ffffff" stroke-width="0.76" stroke-linecap="round"/><circle cx="98.1" cy="-117.7" r="5" fill="#cfe0ff" fill-opacity="0.18" stroke="#9cc0ff" stroke-width="0.6"/><path d="M99.1,-120.8 A3.2,3.2 0 0 1 101.1,-118.8" fill="none" stroke="#ffffff" stroke-width="1" stroke-linecap="round"/><circle cx="-83.7" cy="-45.3" r="4.2" fill="#cfe0ff" fill-opacity="0.18" stroke="#9cc0ff" stroke-width="0.6"/><path d="M-82.9,-47.8 A2.7,2.7 0 0 1 -81.2,-46.2" fill="none" stroke="#ffffff" stroke-width="0.84" stroke-linecap="round"/><circle cx="-96.7" cy="-55.3" r="2.8" fill="#cfe0ff" fill-opacity="0.18" stroke="#9cc0ff" stroke-width="0.6"/><path d="M-96.1,-57 A1.8,1.8 0 0 1 -95,-55.9" fill="none" stroke="#ffffff" stroke-width="0.6" stroke-linecap="round"/><circle cx="-103.6" cy="39.7" r="3.2" fill="#cfe0ff" fill-opacity="0.18" stroke="#9cc0ff" stroke-width="0.6"/><path d="M-103,37.7 A2,2 0 0 1 -101.7,39" fill="none" stroke="#ffffff" stroke-width="0.64" stroke-linecap="round"/></g><g transform="translate(483.7,56.3) scale(-0.13,0.13)"><path d="M33,0 C43,-7 52,-15 62,-21 C57.5,-7 57.5,7 62,21 C52,15 43,7 33,0 Z" fill="#3b84dc"/><path d="M-13,-20 C-4,-36 15,-35 23,-15 Z" fill="#3b84dc"/><path d="M-50,0 C-37,-29 19,-29 40,0 C19,29 -37,29 -50,0 Z" fill="#4f9df2"/><path d="M-47.5,4.5 C-33,24 16,25 37.5,4 C15,14.5 -30,15 -47.5,4.5 Z" fill="#80b8f6"/><path d="M-9,4 C-1,-1 11,2 16,11 C7,14 -3,12 -9,4 Z" fill="#3b84dc"/><path d="M-18,-14 Q-11,0 -18,14" fill="none" stroke="#ffffff" stroke-opacity=".6" stroke-width="3.2" stroke-linecap="round"/><circle cx="-31" cy="-5" r="6.6" fill="#ffffff"/><circle cx="-32.6" cy="-5" r="3.3" fill="#0b1530"/><circle cx="-33.6" cy="-6.3" r="1.1" fill="#ffffff"/></g><g transform="translate(503,63.5) scale(-0.13,0.13)"><path d="M33,0 C43,-7 52,-15 62,-21 C57.5,-7 57.5,7 62,21 C52,15 43,7 33,0 Z" fill="#3b84dc"/><path d="M-13,-20 C-4,-36 15,-35 23,-15 Z" fill="#3b84dc"/><path d="M-50,0 C-37,-29 19,-29 40,0 C19,29 -37,29 -50,0 Z" fill="#4f9df2"/><path d="M-47.5,4.5 C-33,24 16,25 37.5,4 C15,14.5 -30,15 -47.5,4.5 Z" fill="#80b8f6"/><path d="M-9,4 C-1,-1 11,2 16,11 C7,14 -3,12 -9,4 Z" fill="#3b84dc"/><path d="M-18,-14 Q-11,0 -18,14" fill="none" stroke="#ffffff" stroke-opacity=".6" stroke-width="3.2" stroke-linecap="round"/><circle cx="-31" cy="-5" r="6.6" fill="#ffffff"/><circle cx="-32.6" cy="-5" r="3.3" fill="#0b1530"/><circle cx="-33.6" cy="-6.3" r="1.1" fill="#ffffff"/></g><g transform="translate(519.1,71) scale(-0.149,0.149)"><path d="M33,0 C43,-7 52,-15 62,-21 C57.5,-7 57.5,7 62,21 C52,15 43,7 33,0 Z" fill="#3b84dc"/><path d="M-13,-20 C-4,-36 15,-35 23,-15 Z" fill="#3b84dc"/><path d="M-50,0 C-37,-29 19,-29 40,0 C19,29 -37,29 -50,0 Z" fill="#4f9df2"/><path d="M-47.5,4.5 C-33,24 16,25 37.5,4 C15,14.5 -30,15 -47.5,4.5 Z" fill="#80b8f6"/><path d="M-9,4 C-1,-1 11,2 16,11 C7,14 -3,12 -9,4 Z" fill="#3b84dc"/><path d="M-18,-14 Q-11,0 -18,14" fill="none" stroke="#ffffff" stroke-opacity=".6" stroke-width="3.2" stroke-linecap="round"/><circle cx="-31" cy="-5" r="6.6" fill="#ffffff"/><circle cx="-32.6" cy="-5" r="3.3" fill="#0b1530"/><circle cx="-33.6" cy="-6.3" r="1.1" fill="#ffffff"/></g><g transform="translate(502.6,77.8) scale(-0.136,0.136)"><path d="M33,0 C43,-7 52,-15 62,-21 C57.5,-7 57.5,7 62,21 C52,15 43,7 33,0 Z" fill="#3b84dc"/><path d="M-13,-20 C-4,-36 15,-35 23,-15 Z" fill="#3b84dc"/><path d="M-50,0 C-37,-29 19,-29 40,0 C19,29 -37,29 -50,0 Z" fill="#4f9df2"/><path d="M-47.5,4.5 C-33,24 16,25 37.5,4 C15,14.5 -30,15 -47.5,4.5 Z" fill="#80b8f6"/><path d="M-9,4 C-1,-1 11,2 16,11 C7,14 -3,12 -9,4 Z" fill="#3b84dc"/><path d="M-18,-14 Q-11,0 -18,14" fill="none" stroke="#ffffff" stroke-opacity=".6" stroke-width="3.2" stroke-linecap="round"/><circle cx="-31" cy="-5" r="6.6" fill="#ffffff"/><circle cx="-32.6" cy="-5" r="3.3" fill="#0b1530"/><circle cx="-33.6" cy="-6.3" r="1.1" fill="#ffffff"/></g><g transform="translate(706,112) scale(0.22,0.22)"><path d="M33,0 C43,-7 52,-15 62,-21 C57.5,-7 57.5,7 62,21 C52,15 43,7 33,0 Z" fill="#f0b033"/><path d="M-13,-20 C-4,-36 15,-35 23,-15 Z" fill="#f0b033"/><path d="M-50,0 C-37,-29 19,-29 40,0 C19,29 -37,29 -50,0 Z" fill="#ffd055"/><path d="M-47.5,4.5 C-33,24 16,25 37.5,4 C15,14.5 -30,15 -47.5,4.5 Z" fill="#ffdd85"/><path d="M-9,4 C-1,-1 11,2 16,11 C7,14 -3,12 -9,4 Z" fill="#f0b033"/><path d="M-18,-14 Q-11,0 -18,14" fill="none" stroke="#ffffff" stroke-opacity=".6" stroke-width="3.2" stroke-linecap="round"/><circle cx="-31" cy="-5" r="6.6" fill="#ffffff"/><circle cx="-32.6" cy="-5" r="3.3" fill="#0b1530"/><circle cx="-33.6" cy="-6.3" r="1.1" fill="#ffffff"/></g><path d="M29.5,246 C29.6,245.2 30,242.9 30.2,241.3 C30.3,239.8 30.5,238.2 30.5,236.7 C30.5,235.1 30.5,233.6 30.4,232 C30.3,230.4 30.1,228.9 29.8,227.3 C29.5,225.8 29.2,224.2 28.8,222.7 C28.4,221.1 27.9,219.6 27.4,218 C27,216.4 26.5,214.9 26,213.3 C25.6,211.8 25.2,210.2 24.8,208.7 C24.5,207.1 24.2,205.6 24.1,204 C24,202.4 23.9,200.9 24,199.3 C24.1,197.8 24.3,196.2 24.7,194.7 C25,193.1 25.5,191.6 26,190 C26.5,188.4 27.2,186.9 27.8,185.3 C28.5,183.8 29.2,182.2 29.8,180.7 C30.5,179.1 31.2,177.6 31.7,176 C32.2,174.4 32.7,172.9 33,171.3 C33.3,169.8 33.5,168.2 33.6,166.7 C33.6,165.1 33.4,163.6 33.1,162 C32.8,160.4 32.3,158.9 31.7,157.3 C31.1,155.8 30.3,154.2 29.5,152.7 C28.7,151.1 27.8,149.6 26.9,148 C26,146.4 25.1,144.9 24.3,143.3 C23.6,141.8 22.8,140.2 22.2,138.7 C21.7,137.1 21.3,134.8 21.1,134" fill="none" stroke="#2fb78f" stroke-width="5" stroke-linecap="round" stroke-linejoin="round"/><path d="M47.7,246 C47.6,245.5 47.5,243.9 47.4,242.8 C47.3,241.8 47.1,240.7 46.9,239.7 C46.7,238.6 46.5,237.6 46.2,236.5 C46,235.4 45.7,234.4 45.4,233.3 C45.2,232.3 44.8,231.2 44.6,230.2 C44.3,229.1 44,228.1 43.7,227 C43.4,225.9 43.2,224.9 42.9,223.8 C42.7,222.8 42.5,221.7 42.4,220.7 C42.2,219.6 42.1,218.6 42.1,217.5 C42,216.4 42,215.4 42.1,214.3 C42.1,213.3 42.3,212.2 42.4,211.2 C42.6,210.1 42.9,209.1 43.2,208 C43.5,206.9 43.8,205.9 44.2,204.8 C44.6,203.8 45,202.7 45.5,201.7 C45.9,200.6 46.4,199.6 46.9,198.5 C47.4,197.4 47.9,196.4 48.4,195.3 C48.9,194.3 49.4,193.2 49.8,192.2 C50.2,191.1 50.6,190.1 51,189 C51.3,187.9 51.6,186.9 51.8,185.8 C52,184.8 52.1,183.7 52.2,182.7 C52.2,181.6 52.2,180.6 52.1,179.5 C52,178.4 51.7,177.4 51.4,176.3 C51.1,175.3 50.8,174.2 50.3,173.2 C49.9,172.1 49,170.5 48.7,170" fill="none" stroke="#7fd6b9" stroke-width="4" stroke-linecap="round" stroke-linejoin="round"/><path d="M827.8,223.7 L830,218.9 L842,218.9 L844.2,223.7 Z" fill="#ff7a4a"/><circle cx="821" cy="219.2" r="2.6" fill="#ffd055"/><circle cx="821.5" cy="215.3" r="2.6" fill="#ffd055"/><circle cx="823" cy="211.7" r="2.6" fill="#ffd055"/><circle cx="825.4" cy="208.6" r="2.6" fill="#ffd055"/><circle cx="828.5" cy="206.2" r="2.6" fill="#ffd055"/><circle cx="832.1" cy="204.7" r="2.6" fill="#ffd055"/><circle cx="836" cy="204.2" r="2.6" fill="#ffd055"/><circle cx="839.9" cy="204.7" r="2.6" fill="#ffd055"/><circle cx="843.5" cy="206.2" r="2.6" fill="#ffd055"/><circle cx="846.6" cy="208.6" r="2.6" fill="#ffd055"/><circle cx="849" cy="211.7" r="2.6" fill="#ffd055"/><circle cx="850.5" cy="215.3" r="2.6" fill="#ffd055"/><circle cx="851" cy="219.2" r="2.6" fill="#ffd055"/><path d="M821,219.2 A15,15 0 0 1 851,219.2 Z" fill="#ffd055"/><circle cx="827.7" cy="215.9" r="0.9" fill="#e89a1c"/><circle cx="831.5" cy="216.5" r="0.9" fill="#e89a1c"/><circle cx="831.7" cy="215.4" r="0.9" fill="#e89a1c"/><circle cx="833.2" cy="216.1" r="0.9" fill="#e89a1c"/><circle cx="832.8" cy="214.5" r="0.9" fill="#e89a1c"/><circle cx="832.7" cy="210.7" r="0.9" fill="#e89a1c"/><circle cx="834.1" cy="213.2" r="0.9" fill="#e89a1c"/><circle cx="834.9" cy="211" r="0.9" fill="#e89a1c"/><circle cx="836.6" cy="213.9" r="0.9" fill="#e89a1c"/><circle cx="837.3" cy="213.5" r="0.9" fill="#e89a1c"/><circle cx="839.2" cy="210.3" r="0.9" fill="#e89a1c"/><circle cx="838.2" cy="215.7" r="0.9" fill="#e89a1c"/><circle cx="844" cy="211.1" r="0.9" fill="#e89a1c"/><circle cx="842.2" cy="213.1" r="0.9" fill="#e89a1c"/><circle cx="841" cy="216" r="0.9" fill="#e89a1c"/><circle cx="843" cy="216" r="0.9" fill="#e89a1c"/><path d="M863.1,246 C863,245.3 862.7,243.3 862.4,242 C862.2,240.7 861.9,239.3 861.6,238 C861.3,236.7 860.9,235.3 860.6,234 C860.3,232.7 860,231.3 859.7,230 C859.5,228.7 859.2,227.3 859,226 C858.9,224.7 858.7,223.3 858.7,222 C858.6,220.7 858.6,219.3 858.8,218 C858.9,216.7 859,215.3 859.3,214 C859.5,212.7 859.9,211.3 860.3,210 C860.7,208.7 861.1,207.3 861.6,206 C862.1,204.7 862.6,203.3 863.1,202 C863.7,200.7 864.2,199.3 864.7,198 C865.1,196.7 865.6,195.3 866,194 C866.3,192.7 866.6,191.3 866.8,190 C867,188.7 867.1,187.3 867.1,186 C867.1,184.7 867,183.3 866.7,182 C866.5,180.7 866.1,179.3 865.7,178 C865.2,176.7 864.7,175.3 864,174 C863.4,172.7 862.7,171.3 862,170 C861.3,168.7 860.5,167.3 859.8,166 C859.1,164.7 858.4,163.3 857.8,162 C857.2,160.7 856.6,159.3 856.2,158 C855.8,156.7 855.4,155.3 855.3,154 C855.1,152.7 855.2,150.7 855.2,150" fill="none" stroke="#7fd6b9" stroke-width="4" stroke-linecap="round" stroke-linejoin="round"/><path d="M-44,11.2 Q-25.5,7.6 -7,11.2 T30,11.2 T67,11.2 T104,11.2 T141,11.2 T178,11.2 T215,11.2 T252,11.2 T289,11.2 T326,11.2 T363,11.2 T400,11.2 T437,11.2 T474,11.2 T511,11.2 T548,11.2 T585,11.2 T622,11.2 T659,11.2 T696,11.2 T733,11.2 T770,11.2 T807,11.2 T844,11.2 T881,11.2 T918,11.2 T955,11.2 L954.0,-1 L-74.0,-1 Z" fill="#1b3f8f"/><path d="M-74,7.6 Q-55.5,4 -37,7.6 T0,7.6 T37,7.6 T74,7.6 T111,7.6 T148,7.6 T185,7.6 T222,7.6 T259,7.6 T296,7.6 T333,7.6 T370,7.6 T407,7.6 T444,7.6 T481,7.6 T518,7.6 T555,7.6 T592,7.6 T629,7.6 T666,7.6 T703,7.6 T740,7.6 T777,7.6 T814,7.6 T851,7.6 T888,7.6 T925,7.6 T962,7.6 L954.0,-1 L-74.0,-1 Z" fill="#2f6fe0"/><path d="M-74,4 Q-55.5,2.4 -37,4 T0,4 T37,4 T74,4 T111,4 T148,4 T185,4 T222,4 T259,4 T296,4 T333,4 T370,4 T407,4 T444,4 T481,4 T518,4 T555,4 T592,4 T629,4 T666,4 T703,4 T740,4 T777,4 T814,4 T851,4 T888,4 T925,4 T962,4" stroke="#ffffff" stroke-opacity=".24" stroke-width=".9" stroke-linecap="round" stroke-dasharray="22.2 51.8"/></g><rect x=".75" y=".75" width="878.5" height="238.5" rx="17.25" fill="none" stroke="#1d3a72" stroke-width="1.5"/></svg>
