<svg viewBox="0 0 176.8 246.2" xmlns="http://www.w3.org/2000/svg" width="136.44" height="190" focusable="false" aria-hidden="true"><g class="diverbot diverbot-wave" transform="translate(88.4,123.1) scale(1,1) translate(-16.1,18.5)"><defs><linearGradient id="bot-wave-glass" x1="0" y1="0" x2="0" y2="1"><stop offset="0" stop-color="#f2f8ff"/><stop offset="1" stop-color="#bcd6f8"/></linearGradient><linearGradient id="bot-wave-deep" x1="0" y1="0" x2="0" y2="1"><stop offset=".15" stop-color="#0b1b3d"/><stop offset="1" stop-color="#2152c4"/></linearGradient><radialGradient id="bot-wave-glow"><stop offset="0" stop-color="#f7c443" stop-opacity=".6"/><stop offset=".45" stop-color="#f7c443" stop-opacity=".2"/><stop offset="1" stop-color="#f7c443" stop-opacity="0"/></radialGradient><radialGradient id="bot-wave-eyeglow"><stop offset="0" stop-color="#9cc0ff" stop-opacity=".7"/><stop offset="1" stop-color="#9cc0ff" stop-opacity="0"/></radialGradient><clipPath id="bot-wave-peek"><rect x="-200" y="-300" width="400" height="300"/></clipPath></defs><g transform="translate(-19,64) scale(-1,1) rotate(0)"><rect x="-8" y="-4" width="16" height="28" rx="7" fill="#f7faff" stroke="#2e3870" stroke-width="2.59" stroke-linejoin="round" stroke-linecap="round"/><path d="M2,-2 C6,-1 8,1 8,4 L8,20 C8,22 6,23 4,23 Z" fill="#d9e4f6"/><g transform="translate(0,0)"><path d="M-7,22 C2,19 18,20 34,27 C40,30 39,36 33,37 C18,39 2,38 -8,36 C-12,33 -12,25 -7,22 Z" fill="#ee6a3c" stroke="#2e3870" stroke-width="2.59" stroke-linejoin="round" stroke-linecap="round"/><path d="M6,24 C12,27 17,31 20,36.5 M17,24.5 C23,27 27,31 29,36" fill="none" stroke="#f5916b" stroke-width="2.6" stroke-linecap="round"/></g></g><g transform="translate(19,64) scale(1,1) rotate(0)"><rect x="-8" y="-4" width="16" height="28" rx="7" fill="#f7faff" stroke="#2e3870" stroke-width="2.59" stroke-linejoin="round" stroke-linecap="round"/><path d="M2,-2 C6,-1 8,1 8,4 L8,20 C8,22 6,23 4,23 Z" fill="#d9e4f6"/><g transform="translate(0,0)"><path d="M-7,22 C2,19 18,20 34,27 C40,30 39,36 33,37 C18,39 2,38 -8,36 C-12,33 -12,25 -7,22 Z" fill="#ee6a3c" stroke="#2e3870" stroke-width="2.59" stroke-linejoin="round" stroke-linecap="round"/><path d="M6,24 C12,27 17,31 20,36.5 M17,24.5 C23,27 27,31 29,36" fill="none" stroke="#f5916b" stroke-width="2.6" stroke-linecap="round"/></g></g><g transform="translate(-40,10) scale(-1,1) rotate(-14)"><rect x="-7.5" y="-6" width="15" height="36" rx="7.5" fill="#f7faff" stroke="#2e3870" stroke-width="2.59" stroke-linejoin="round" stroke-linecap="round"/><path d="M1.5,-4 C5,-3 7.5,-1 7.5,2 L7.5,26 C7.5,28 6,29.5 4,29.5 Z" fill="#d9e4f6"/><rect x="-9" y="22" width="18" height="8" rx="3.5" fill="#4b56ad" stroke="#2e3870" stroke-width="2.59" stroke-linejoin="round" stroke-linecap="round"/><ellipse cx="-9" cy="35" rx="5" ry="7" transform="rotate(-28 -9 35)" fill="#3a8ee6" stroke="#2e3870" stroke-width="2.59" stroke-linejoin="round" stroke-linecap="round"/><path d="M-10,33 C-10,44 -5,48 1,48 C8,48 11,43 11,36 C11,30 7,28 0,28 C-6,28 -10,29 -10,33 Z" fill="#3a8ee6" stroke="#2e3870" stroke-width="2.59" stroke-linejoin="round" stroke-linecap="round"/><path d="M5,31 C9,33 10,37 9,41" fill="none" stroke="#2b73cc" stroke-width="2.6" stroke-linecap="round"/></g><rect x="-13" y="-12" width="26" height="14" rx="5" fill="#c6d4ee" stroke="#2e3870" stroke-width="2.59" stroke-linejoin="round" stroke-linecap="round"/><path d="M-29,-3 L29,-3 C37,-3 41,3 42,11 L45,51 C46,61 39,68 29,68 L-29,68 C-39,68 -46,61 -45,51 L-42,11 C-41,3 -37,-3 -29,-3 Z" fill="#f7faff" stroke="#2e3870" stroke-width="2.59" stroke-linejoin="round" stroke-linecap="round"/><path d="M22,-3 L29,-3 C37,-3 41,3 42,11 L45,51 C46,61 39,68 29,68 L23,68 C32,65 37,58 36,48 L34,12 C33,4 29,-1 22,-3 Z" fill="#d9e4f6"/><path d="M-29,-3 L29,-3 C37,-3 41,3 42,11 L45,51 C46,61 39,68 29,68 L-29,68 C-39,68 -46,61 -45,51 L-42,11 C-41,3 -37,-3 -29,-3 Z" fill="none" stroke="#2e3870" stroke-width="2.59" stroke-linejoin="round" stroke-linecap="round"/><rect x="-21" y="9" width="42" height="33" rx="9" fill="#2f6fe0" stroke="#2e3870" stroke-width="2.59" stroke-linejoin="round" stroke-linecap="round"/><path d="M-13,28 q4.3,-6 8.6,0 t8.6,0 t8.6,0" fill="none" stroke="#a9cbf6" stroke-width="3" stroke-linecap="round"/><circle cx="11" cy="17.5" r="3" fill="none" stroke="#a9cbf6" stroke-width="2"/><circle cx="5.5" cy="15" r="1.7" fill="#a9cbf6"/><path d="M-45.4,50 L45.4,50 L45.6,58 C45.8,60 45.8,61 45.6,62 L-45.6,62 C-45.8,61 -45.8,60 -45.6,58 Z" fill="#4b56ad" stroke="#2e3870" stroke-width="2.59" stroke-linejoin="round" stroke-linecap="round"/><rect x="-6" y="48.5" width="12" height="15" rx="3" fill="#f7c443" stroke="#2e3870" stroke-width="2.59" stroke-linejoin="round" stroke-linecap="round"/><g transform="rotate(-6 0 -8)"><path d="M0,-95 L0,-111" fill="none" stroke="#2e3870" stroke-width="8.97" stroke-linecap="round"/><path d="M0,-95 L0,-111" fill="none" stroke="#2152c4" stroke-width="3.8" stroke-linecap="round"/><circle cx="0" cy="-118" r="15" fill="url(#bot-wave-glow)"/><circle cx="0" cy="-118" r="8.2" fill="#f7c443" stroke="#2e3870" stroke-width="2.59" stroke-linejoin="round" stroke-linecap="round"/><circle cx="-2.6" cy="-120.6" r="2.5" fill="#fff3c4"/><path d="M-47,-44 C-47,-78 -26,-97 0,-97 C26,-97 47,-78 47,-44 L47,-28 C47,-15 39,-8 26,-8 L-26,-8 C-39,-8 -47,-15 -47,-28 Z" fill="#f7faff" stroke="#2e3870" stroke-width="2.59" stroke-linejoin="round" stroke-linecap="round"/><path d="M18,-94 C37,-87 47,-68 47,-44 L47,-28 C47,-15 39,-8 26,-8 L18,-8 C31,-10 39,-18 39,-30 L39,-46 C39,-68 32,-84 18,-94 Z" fill="#d9e4f6"/><ellipse cx="-22" cy="-82" rx="11" ry="5.5" transform="rotate(-28 -22 -82)" fill="#ffffff"/><path d="M-47,-44 C-47,-78 -26,-97 0,-97 C26,-97 47,-78 47,-44 L47,-28 C47,-15 39,-8 26,-8 L-26,-8 C-39,-8 -47,-15 -47,-28 Z" fill="none" stroke="#2e3870" stroke-width="2.59" stroke-linejoin="round" stroke-linecap="round"/><path d="M-46.4,-58 Q0,-51 46.4,-58 L47,-43 Q0,-36 -47,-43 Z" fill="#4b56ad" stroke="#2e3870" stroke-width="2.59" stroke-linejoin="round" stroke-linecap="round"/><circle cx="-48" cy="-50" r="9" fill="#4b56ad" stroke="#2e3870" stroke-width="2.59" stroke-linejoin="round" stroke-linecap="round"/><circle cx="-48" cy="-50" r="3.4" fill="#a9cbf6"/><ellipse cx="0" cy="-49" rx="40" ry="25" fill="#2e3870" stroke="#2e3870" stroke-width="5.17" stroke-linejoin="round"/><ellipse cx="0" cy="-29" rx="15.5" ry="12.5" fill="#2e3870" stroke="#2e3870" stroke-width="5.17" stroke-linejoin="round"/><ellipse cx="0" cy="-49" rx="40" ry="25" fill="#2f6fe0"/><ellipse cx="0" cy="-29" rx="15.5" ry="12.5" fill="#2f6fe0"/><path d="M-31,-67 C-18,-75 18,-75 31,-67" fill="none" stroke="#6c9cf2" stroke-width="3.2" stroke-linecap="round"/><circle cx="-35.5" cy="-49" r="2.3" fill="#a9cbf6"/><circle cx="35.5" cy="-49" r="2.3" fill="#a9cbf6"/><path d="M-32.5,-49 C-32.5,-61 -18,-67.5 0,-67.5 C18,-67.5 32.5,-61 32.5,-49 C32.5,-39 24,-33.5 13,-32.5 C11,-25 6,-21.5 0,-21.5 C-6,-21.5 -11,-25 -13,-32.5 C-24,-33.5 -32.5,-39 -32.5,-49 Z" fill="url(#bot-wave-glass)" stroke="#2e3870" stroke-width="1.81" stroke-linejoin="round"/><path d="M-19,-48 Q-13,-57 -7,-48" fill="none" stroke="#253048" stroke-width="3.8" stroke-linecap="round"/><path d="M7,-48 Q13,-57 19,-48" fill="none" stroke="#253048" stroke-width="3.8" stroke-linecap="round"/><ellipse cx="-24" cy="-39" rx="5" ry="3" fill="#f26b4f" fill-opacity=".45"/><ellipse cx="24" cy="-39" rx="5" ry="3" fill="#f26b4f" fill-opacity=".45"/><path d="M-7,-36 Q0,-35.4 7,-36 Q6,-27 0,-27 Q-6,-27 -7,-36 Z" fill="#253048"/><path d="M-3.6,-28.6 Q0,-32.5 3.6,-28.6 Q0,-27 -3.6,-28.6 Z" fill="#f26b4f"/><path d="M-25,-57 C-22,-62 -15,-65 -8,-65.5" fill="none" stroke="#ffffff" stroke-opacity=".9" stroke-width="3.6" stroke-linecap="round"/><path d="M27,-21 C44,-17 58,-25 58,-42 L58,-96 C58,-104 54,-108 47,-109" fill="none" stroke="#2e3870" stroke-width="14.67" stroke-linecap="round"/><path d="M27,-21 C44,-17 58,-25 58,-42 L58,-96 C58,-104 54,-108 47,-109" fill="none" stroke="#ee6a3c" stroke-width="9.5" stroke-linecap="round"/><path d="M53.4,-76 L62.6,-76 M53.4,-87 L62.6,-87" stroke="#ffffff" stroke-width="3" stroke-linecap="round"/><rect x="17" y="-27" width="13" height="10" rx="4" transform="rotate(14 23.5 -22)" fill="#4b56ad" stroke="#2e3870" stroke-width="2.59" stroke-linejoin="round" stroke-linecap="round"/><rect x="45" y="-56" width="20" height="11" rx="4" fill="#4b56ad" stroke="#2e3870" stroke-width="2.59" stroke-linejoin="round" stroke-linecap="round"/></g><g transform="translate(40,10) scale(1,1) rotate(-152)"><rect x="-7.5" y="-6" width="15" height="36" rx="7.5" fill="#f7faff" stroke="#2e3870" stroke-width="2.59" stroke-linejoin="round" stroke-linecap="round"/><path d="M1.5,-4 C5,-3 7.5,-1 7.5,2 L7.5,26 C7.5,28 6,29.5 4,29.5 Z" fill="#d9e4f6"/><rect x="-9" y="22" width="18" height="8" rx="3.5" fill="#4b56ad" stroke="#2e3870" stroke-width="2.59" stroke-linejoin="round" stroke-linecap="round"/><ellipse cx="-9" cy="35" rx="5" ry="7" transform="rotate(-28 -9 35)" fill="#3a8ee6" stroke="#2e3870" stroke-width="2.59" stroke-linejoin="round" stroke-linecap="round"/><path d="M-10,33 C-10,44 -5,48 1,48 C8,48 11,43 11,36 C11,30 7,28 0,28 C-6,28 -10,29 -10,33 Z" fill="#3a8ee6" stroke="#2e3870" stroke-width="2.59" stroke-linejoin="round" stroke-linecap="round"/><path d="M5,31 C9,33 10,37 9,41" fill="none" stroke="#2b73cc" stroke-width="2.6" stroke-linecap="round"/></g><path d="M62,-104 C70,-112 74,-120 74,-130 M90,-94 C98,-100 102,-108 102,-116" fill="none" stroke="#7fa8ec" stroke-width="3.4" stroke-linecap="round"/></g></svg>
