<svg viewBox="0 0 310.3 282.1" xmlns="http://www.w3.org/2000/svg" width="252.99" height="230" focusable="false" aria-hidden="true"><g class="diverbot diverbot-swim" transform="translate(155.15,141.05) scale(1,1) translate(-41.4,-2.1)"><defs><linearGradient id="bot-hero-glass" x1="0" y1="0" x2="0" y2="1"><stop offset="0" stop-color="#f2f8ff"/><stop offset="1" stop-color="#bcd6f8"/></linearGradient><linearGradient id="bot-hero-deep" x1="0" y1="0" x2="0" y2="1"><stop offset=".15" stop-color="#0b1b3d"/><stop offset="1" stop-color="#2152c4"/></linearGradient><radialGradient id="bot-hero-glow"><stop offset="0" stop-color="#f7c443" stop-opacity=".6"/><stop offset=".45" stop-color="#f7c443" stop-opacity=".2"/><stop offset="1" stop-color="#f7c443" stop-opacity="0"/></radialGradient><radialGradient id="bot-hero-eyeglow"><stop offset="0" stop-color="#9cc0ff" stop-opacity=".7"/><stop offset="1" stop-color="#9cc0ff" stop-opacity="0"/></radialGradient><clipPath id="bot-hero-peek"><rect x="-200" y="-300" width="400" height="300"/></clipPath></defs><g transform="rotate(112 0 30)"><g transform="translate(-19,64) scale(-1,1) rotate(-16)"><rect x="-8" y="-4" width="16" height="28" rx="7" fill="#f7faff" stroke="#2e3870" stroke-width="3.26" stroke-linejoin="round" stroke-linecap="round"/><path d="M2,-2 C6,-1 8,1 8,4 L8,20 C8,22 6,23 4,23 Z" fill="#d9e4f6"/><g transform="translate(0,0)"><path d="M-9,18 L9,18 C13,30 17,42 18,52 C18,58 13,60 8,57 C4,61 -4,61 -8,57 C-13,60 -18,58 -18,52 C-17,42 -13,30 -9,18 Z" fill="#ee6a3c" stroke="#2e3870" stroke-width="3.26" stroke-linejoin="round" stroke-linecap="round"/><path d="M-4,26 L-7,52 M4,26 L7,52" fill="none" stroke="#f5916b" stroke-width="2.6" stroke-linecap="round"/></g></g><g transform="translate(19,64) scale(1,1) rotate(-24)"><rect x="-8" y="-4" width="16" height="19" rx="7" fill="#f7faff" stroke="#2e3870" stroke-width="3.26" stroke-linejoin="round" stroke-linecap="round"/><path d="M2,-2 C6,-1 8,1 8,4 L8,11 C8,13 6,14 4,14 Z" fill="#d9e4f6"/><g transform="translate(0,-9)"><path d="M-9,18 L9,18 C13,30 17,42 18,52 C18,58 13,60 8,57 C4,61 -4,61 -8,57 C-13,60 -18,58 -18,52 C-17,42 -13,30 -9,18 Z" fill="#ee6a3c" stroke="#2e3870" stroke-width="3.26" stroke-linejoin="round" stroke-linecap="round"/><path d="M-4,26 L-7,52 M4,26 L7,52" fill="none" stroke="#f5916b" stroke-width="2.6" stroke-linecap="round"/></g></g><rect x="-13" y="-12" width="26" height="14" rx="5" fill="#c6d4ee" stroke="#2e3870" stroke-width="3.26" stroke-linejoin="round" stroke-linecap="round"/><path d="M-29,-3 L29,-3 C37,-3 41,3 42,11 L45,51 C46,61 39,68 29,68 L-29,68 C-39,68 -46,61 -45,51 L-42,11 C-41,3 -37,-3 -29,-3 Z" fill="#f7faff" stroke="#2e3870" stroke-width="3.26" stroke-linejoin="round" stroke-linecap="round"/><path d="M22,-3 L29,-3 C37,-3 41,3 42,11 L45,51 C46,61 39,68 29,68 L23,68 C32,65 37,58 36,48 L34,12 C33,4 29,-1 22,-3 Z" fill="#d9e4f6"/><path d="M-29,-3 L29,-3 C37,-3 41,3 42,11 L45,51 C46,61 39,68 29,68 L-29,68 C-39,68 -46,61 -45,51 L-42,11 C-41,3 -37,-3 -29,-3 Z" fill="none" stroke="#2e3870" stroke-width="3.26" stroke-linejoin="round" stroke-linecap="round"/><rect x="-21" y="9" width="42" height="33" rx="9" fill="#2f6fe0" stroke="#2e3870" stroke-width="3.26" stroke-linejoin="round" stroke-linecap="round"/><path d="M-13,28 q4.3,-6 8.6,0 t8.6,0 t8.6,0" fill="none" stroke="#a9cbf6" stroke-width="3" stroke-linecap="round"/><circle cx="11" cy="17.5" r="3" fill="none" stroke="#a9cbf6" stroke-width="2"/><circle cx="5.5" cy="15" r="1.7" fill="#a9cbf6"/><path d="M-45.4,50 L45.4,50 L45.6,58 C45.8,60 45.8,61 45.6,62 L-45.6,62 C-45.8,61 -45.8,60 -45.6,58 Z" fill="#4b56ad" stroke="#2e3870" stroke-width="3.26" stroke-linejoin="round" stroke-linecap="round"/><rect x="-6" y="48.5" width="12" height="15" rx="3" fill="#f7c443" stroke="#2e3870" stroke-width="3.26" stroke-linejoin="round" stroke-linecap="round"/><g transform="translate(-6,34) rotate(96)"><rect x="-19" y="-15" width="42" height="31" rx="3.5" fill="#ffffff" stroke="#2e3870" stroke-width="3.26" stroke-linejoin="round" stroke-linecap="round"/><path d="M21,-10 L21,11 M17.5,-11 L17.5,12" stroke="#9fbbec" stroke-width="1.6"/><rect x="-22" y="-17" width="38" height="33" rx="4" fill="#f7c443" stroke="#2e3870" stroke-width="3.26" stroke-linejoin="round" stroke-linecap="round"/><rect x="-22" y="-17" width="8" height="33" rx="3.5" fill="#e3a82c" stroke="#2e3870" stroke-width="3.26" stroke-linejoin="round" stroke-linecap="round"/><g transform="translate(2.5,-0.5) scale(-0.17,0.17)" fill="#ee6a3c"><path d="M33,0 C43,-7 52,-15 62,-21 C57.5,-7 57.5,7 62,21 C52,15 43,7 33,0 Z"/><path d="M-50,0 C-37,-29 19,-29 40,0 C19,29 -37,29 -50,0 Z"/><circle cx="-31" cy="-5" r="6.5" fill="#ffffff"/></g></g><g transform="translate(-40,10) scale(-1,1) rotate(38)"><rect x="-7.5" y="-6" width="15" height="36" rx="7.5" fill="#f7faff" stroke="#2e3870" stroke-width="3.26" stroke-linejoin="round" stroke-linecap="round"/><path d="M1.5,-4 C5,-3 7.5,-1 7.5,2 L7.5,26 C7.5,28 6,29.5 4,29.5 Z" fill="#d9e4f6"/><rect x="-9" y="22" width="18" height="8" rx="3.5" fill="#4b56ad" stroke="#2e3870" stroke-width="3.26" stroke-linejoin="round" stroke-linecap="round"/><ellipse cx="-9" cy="35" rx="5" ry="7" transform="rotate(-28 -9 35)" fill="#3a8ee6" stroke="#2e3870" stroke-width="3.26" stroke-linejoin="round" stroke-linecap="round"/><path d="M-10,33 C-10,44 -5,48 1,48 C8,48 11,43 11,36 C11,30 7,28 0,28 C-6,28 -10,29 -10,33 Z" fill="#3a8ee6" stroke="#2e3870" stroke-width="3.26" stroke-linejoin="round" stroke-linecap="round"/><path d="M5,31 C9,33 10,37 9,41" fill="none" stroke="#2b73cc" stroke-width="2.6" stroke-linecap="round"/></g><g transform="translate(40,10) scale(1,1) rotate(-196)"><rect x="-7.5" y="-6" width="15" height="36" rx="7.5" fill="#f7faff" stroke="#2e3870" stroke-width="3.26" stroke-linejoin="round" stroke-linecap="round"/><path d="M1.5,-4 C5,-3 7.5,-1 7.5,2 L7.5,26 C7.5,28 6,29.5 4,29.5 Z" fill="#d9e4f6"/><rect x="-9" y="22" width="18" height="8" rx="3.5" fill="#4b56ad" stroke="#2e3870" stroke-width="3.26" stroke-linejoin="round" stroke-linecap="round"/><ellipse cx="-9" cy="35" rx="5" ry="7" transform="rotate(-28 -9 35)" fill="#3a8ee6" stroke="#2e3870" stroke-width="3.26" stroke-linejoin="round" stroke-linecap="round"/><path d="M-10,33 C-10,44 -5,48 1,48 C8,48 11,43 11,36 C11,30 7,28 0,28 C-6,28 -10,29 -10,33 Z" fill="#3a8ee6" stroke="#2e3870" stroke-width="3.26" stroke-linejoin="round" stroke-linecap="round"/><path d="M5,31 C9,33 10,37 9,41" fill="none" stroke="#2b73cc" stroke-width="2.6" stroke-linecap="round"/></g><g transform="rotate(-58 0 -8) scale(-1,1)"><path d="M0,-95 L0,-111" fill="none" stroke="#2e3870" stroke-width="10.32" stroke-linecap="round"/><path d="M0,-95 L0,-111" fill="none" stroke="#2152c4" stroke-width="3.8" stroke-linecap="round"/><circle cx="0" cy="-118" r="15" fill="url(#bot-hero-glow)"/><circle cx="0" cy="-118" r="8.2" fill="#f7c443" stroke="#2e3870" stroke-width="3.26" stroke-linejoin="round" stroke-linecap="round"/><circle cx="-2.6" cy="-120.6" r="2.5" fill="#fff3c4"/><path d="M-47,-44 C-47,-78 -26,-97 0,-97 C26,-97 47,-78 47,-44 L47,-28 C47,-15 39,-8 26,-8 L-26,-8 C-39,-8 -47,-15 -47,-28 Z" fill="#f7faff" stroke="#2e3870" stroke-width="3.26" stroke-linejoin="round" stroke-linecap="round"/><path d="M18,-94 C37,-87 47,-68 47,-44 L47,-28 C47,-15 39,-8 26,-8 L18,-8 C31,-10 39,-18 39,-30 L39,-46 C39,-68 32,-84 18,-94 Z" fill="#d9e4f6"/><ellipse cx="-22" cy="-82" rx="11" ry="5.5" transform="rotate(-28 -22 -82)" fill="#ffffff"/><path d="M-47,-44 C-47,-78 -26,-97 0,-97 C26,-97 47,-78 47,-44 L47,-28 C47,-15 39,-8 26,-8 L-26,-8 C-39,-8 -47,-15 -47,-28 Z" fill="none" stroke="#2e3870" stroke-width="3.26" stroke-linejoin="round" stroke-linecap="round"/><path d="M-46.4,-58 Q0,-51 46.4,-58 L47,-43 Q0,-36 -47,-43 Z" fill="#4b56ad" stroke="#2e3870" stroke-width="3.26" stroke-linejoin="round" stroke-linecap="round"/><circle cx="-48" cy="-50" r="9" fill="#4b56ad" stroke="#2e3870" stroke-width="3.26" stroke-linejoin="round" stroke-linecap="round"/><circle cx="-48" cy="-50" r="3.4" fill="#a9cbf6"/><ellipse cx="0" cy="-49" rx="40" ry="25" fill="#2e3870" stroke="#2e3870" stroke-width="6.52" stroke-linejoin="round"/><ellipse cx="0" cy="-29" rx="15.5" ry="12.5" fill="#2e3870" stroke="#2e3870" stroke-width="6.52" stroke-linejoin="round"/><ellipse cx="0" cy="-49" rx="40" ry="25" fill="#2f6fe0"/><ellipse cx="0" cy="-29" rx="15.5" ry="12.5" fill="#2f6fe0"/><path d="M-31,-67 C-18,-75 18,-75 31,-67" fill="none" stroke="#6c9cf2" stroke-width="3.2" stroke-linecap="round"/><circle cx="-35.5" cy="-49" r="2.3" fill="#a9cbf6"/><circle cx="35.5" cy="-49" r="2.3" fill="#a9cbf6"/><path d="M-32.5,-49 C-32.5,-61 -18,-67.5 0,-67.5 C18,-67.5 32.5,-61 32.5,-49 C32.5,-39 24,-33.5 13,-32.5 C11,-25 6,-21.5 0,-21.5 C-6,-21.5 -11,-25 -13,-32.5 C-24,-33.5 -32.5,-39 -32.5,-49 Z" fill="url(#bot-hero-glass)" stroke="#2e3870" stroke-width="2.28" stroke-linejoin="round"/><ellipse cx="-16" cy="-51" rx="5.4" ry="7" fill="#253048"/><circle cx="-17.8" cy="-53.6" r="2.1" fill="#ffffff"/><ellipse cx="10" cy="-51" rx="5.4" ry="7" fill="#253048"/><circle cx="8.2" cy="-53.6" r="2.1" fill="#ffffff"/><ellipse cx="-25.5" cy="-39.5" rx="5" ry="3" fill="#f26b4f" fill-opacity=".45"/><ellipse cx="22.5" cy="-39.5" rx="5" ry="3" fill="#f26b4f" fill-opacity=".45"/><path d="M-8.5,-35.5 Q-1.5,-29 5.5,-35.5" fill="none" stroke="#253048" stroke-width="3" stroke-linecap="round"/><path d="M-25,-57 C-22,-62 -15,-65 -8,-65.5" fill="none" stroke="#ffffff" stroke-opacity=".9" stroke-width="3.6" stroke-linecap="round"/><path d="M27,-21 C44,-17 58,-25 58,-42 L58,-96 C58,-104 54,-108 47,-109" fill="none" stroke="#2e3870" stroke-width="16.02" stroke-linecap="round"/><path d="M27,-21 C44,-17 58,-25 58,-42 L58,-96 C58,-104 54,-108 47,-109" fill="none" stroke="#ee6a3c" stroke-width="9.5" stroke-linecap="round"/><path d="M53.4,-76 L62.6,-76 M53.4,-87 L62.6,-87" stroke="#ffffff" stroke-width="3" stroke-linecap="round"/><rect x="17" y="-27" width="13" height="10" rx="4" transform="rotate(14 23.5 -22)" fill="#4b56ad" stroke="#2e3870" stroke-width="3.26" stroke-linejoin="round" stroke-linecap="round"/><rect x="45" y="-56" width="20" height="11" rx="4" fill="#4b56ad" stroke="#2e3870" stroke-width="3.26" stroke-linejoin="round" stroke-linecap="round"/></g></g><circle cx="87.1" cy="-67.7" r="4.6" fill="#ffffff" fill-opacity="0.55" stroke="#9fbbec" stroke-width="0.6"/><path d="M88,-70.5 A2.9,2.9 0 0 1 89.9,-68.7" fill="none" stroke="#ffffff" stroke-width="0.92" stroke-linecap="round"/><circle cx="96.1" cy="-84.7" r="6.4" fill="#ffffff" fill-opacity="0.55" stroke="#9fbbec" stroke-width="0.77"/><path d="M97.4,-88.6 A4.1,4.1 0 0 1 100,-86.1" fill="none" stroke="#ffffff" stroke-width="1.28" stroke-linecap="round"/><circle cx="88.1" cy="-103.7" r="3.8" fill="#ffffff" fill-opacity="0.55" stroke="#9fbbec" stroke-width="0.6"/><path d="M88.9,-106.1 A2.4,2.4 0 0 1 90.4,-104.6" fill="none" stroke="#ffffff" stroke-width="0.76" stroke-linecap="round"/><circle cx="98.1" cy="-117.7" r="5" fill="#ffffff" fill-opacity="0.55" stroke="#9fbbec" stroke-width="0.6"/><path d="M99.1,-120.8 A3.2,3.2 0 0 1 101.1,-118.8" fill="none" stroke="#ffffff" stroke-width="1" stroke-linecap="round"/><circle cx="-83.7" cy="-45.3" r="4.2" fill="#ffffff" fill-opacity="0.55" stroke="#9fbbec" stroke-width="0.6"/><path d="M-82.9,-47.8 A2.7,2.7 0 0 1 -81.2,-46.2" fill="none" stroke="#ffffff" stroke-width="0.84" stroke-linecap="round"/><circle cx="-96.7" cy="-55.3" r="2.8" fill="#ffffff" fill-opacity="0.55" stroke="#9fbbec" stroke-width="0.6"/><path d="M-96.1,-57 A1.8,1.8 0 0 1 -95,-55.9" fill="none" stroke="#ffffff" stroke-width="0.6" stroke-linecap="round"/><circle cx="-103.6" cy="39.7" r="3.2" fill="#ffffff" fill-opacity="0.55" stroke="#9fbbec" stroke-width="0.6"/><path d="M-103,37.7 A2,2 0 0 1 -101.7,39" fill="none" stroke="#ffffff" stroke-width="0.64" stroke-linecap="round"/></g></svg>
